<?xml version="1.0" encoding="UTF-8" standalone="no"?>
<!-- Created with Inkscape (http://www.inkscape.org/) -->

<svg
   xmlns:dc="http://purl.org/dc/elements/1.1/"
   xmlns:cc="http://creativecommons.org/ns#"
   xmlns:rdf="http://www.w3.org/1999/02/22-rdf-syntax-ns#"
   xmlns:svg="http://www.w3.org/2000/svg"
   xmlns="http://www.w3.org/2000/svg"
   xmlns:sodipodi="http://sodipodi.sourceforge.net/DTD/sodipodi-0.dtd"
   xmlns:inkscape="http://www.inkscape.org/namespaces/inkscape"
   width="128"
   height="128"
   id="svg2"
   version="1.1"
   inkscape:version="0.48.3.1 r9886"
   sodipodi:docname="bus_128.svg">
  <defs
     id="defs4">
    <marker
       inkscape:stockid="EmptyTriangleOutM"
       orient="auto"
       refY="0.0"
       refX="0.0"
       id="EmptyTriangleOutM"
       style="overflow:visible">
      <path
         id="path3949"
         d="M 5.77,0.0 L -2.88,5.0 L -2.88,-5.0 L 5.77,0.0 z "
         style="fill-rule:evenodd;fill:#FFFFFF;stroke:#000000;stroke-width:1.0pt"
         transform="scale(0.4) translate(-4.5,0)" />
    </marker>
    <marker
       inkscape:stockid="EmptyTriangleOutS"
       orient="auto"
       refY="0.0"
       refX="0.0"
       id="EmptyTriangleOutS"
       style="overflow:visible">
      <path
         id="path3952"
         d="M 5.77,0.0 L -2.88,5.0 L -2.88,-5.0 L 5.77,0.0 z "
         style="fill-rule:evenodd;fill:#FFFFFF;stroke:#000000;stroke-width:1.0pt"
         transform="scale(0.2) translate(-3.0,0)" />
    </marker>
    <marker
       inkscape:stockid="EmptyTriangleInS"
       orient="auto"
       refY="0.0"
       refX="0.0"
       id="EmptyTriangleInS"
       style="overflow:visible">
      <path
         id="path3943"
         d="M 5.77,0.0 L -2.88,5.0 L -2.88,-5.0 L 5.77,0.0 z "
         style="fill-rule:evenodd;fill:#FFFFFF;stroke:#000000;stroke-width:1.0pt"
         transform="scale(-0.2) translate(-3.0,0)" />
    </marker>
    <marker
       inkscape:stockid="DiamondSstart"
       orient="auto"
       refY="0.0"
       refX="0.0"
       id="DiamondSstart"
       style="overflow:visible">
      <path
         id="path3880"
         d="M 0,-7.0710768 L -7.0710894,0 L 0,7.0710589 L 7.0710462,0 L 0,-7.0710768 z "
         style="fill-rule:evenodd;stroke:#000000;stroke-width:1.0pt"
         transform="scale(0.2) translate(6,0)" />
    </marker>
    <marker
       inkscape:stockid="Arrow1Send"
       orient="auto"
       refY="0.0"
       refX="0.0"
       id="Arrow1Send"
       style="overflow:visible;">
      <path
         id="path3801"
         d="M 0.0,0.0 L 5.0,-5.0 L -12.5,0.0 L 5.0,5.0 L 0.0,0.0 z "
         style="fill-rule:evenodd;stroke:#000000;stroke-width:1.0pt;"
         transform="scale(0.2) rotate(180) translate(6,0)" />
    </marker>
    <marker
       inkscape:stockid="EmptyTriangleOutL"
       orient="auto"
       refY="0.0"
       refX="0.0"
       id="EmptyTriangleOutL"
       style="overflow:visible">
      <path
         id="path3946"
         d="M 5.77,0.0 L -2.88,5.0 L -2.88,-5.0 L 5.77,0.0 z "
         style="fill-rule:evenodd;fill:#FFFFFF;stroke:#000000;stroke-width:1.0pt"
         transform="scale(0.8) translate(-6,0)" />
    </marker>
    <marker
       inkscape:stockid="Arrow1Lend"
       orient="auto"
       refY="0.0"
       refX="0.0"
       id="Arrow1Lend"
       style="overflow:visible;">
      <path
         id="path3789"
         d="M 0.0,0.0 L 5.0,-5.0 L -12.5,0.0 L 5.0,5.0 L 0.0,0.0 z "
         style="fill-rule:evenodd;stroke:#000000;stroke-width:1.0pt;"
         transform="scale(0.8) rotate(180) translate(12.5,0)" />
    </marker>
    <marker
       inkscape:stockid="TriangleOutL"
       orient="auto"
       refY="0.0"
       refX="0.0"
       id="TriangleOutL"
       style="overflow:visible">
      <path
         id="path3928"
         d="M 5.77,0.0 L -2.88,5.0 L -2.88,-5.0 L 5.77,0.0 z "
         style="fill-rule:evenodd;stroke:#000000;stroke-width:1.0pt"
         transform="scale(0.8)" />
    </marker>
  </defs>
  <sodipodi:namedview
     id="base"
     pagecolor="#ffffff"
     bordercolor="#666666"
     borderopacity="1.0"
     inkscape:pageopacity="0.0"
     inkscape:pageshadow="2"
     inkscape:zoom="2.8284271"
     inkscape:cx="67.031777"
     inkscape:cy="79.462853"
     inkscape:document-units="px"
     inkscape:current-layer="layer1"
     showgrid="true"
     inkscape:window-width="1024"
     inkscape:window-height="543"
     inkscape:window-x="0"
     inkscape:window-y="0"
     inkscape:window-maximized="1">
    <inkscape:grid
       type="xygrid"
       id="grid2985"
       empspacing="2"
       visible="true"
       enabled="true"
       snapvisiblegridlinesonly="true" />
  </sodipodi:namedview>
  <metadata
     id="metadata7">
    <rdf:RDF>
      <cc:Work
         rdf:about="">
        <dc:format>image/svg+xml</dc:format>
        <dc:type
           rdf:resource="http://purl.org/dc/dcmitype/StillImage" />
        <dc:title></dc:title>
      </cc:Work>
    </rdf:RDF>
  </metadata>
  <g
     inkscape:label="Layer 1"
     inkscape:groupmode="layer"
     id="layer1"
     transform="translate(0,-924.36218)">
    <g
       id="g6299"
       transform="translate(66,34)"
       style="fill:#000000;stroke:#000000;stroke-opacity:1;stroke-width:8;stroke-miterlimit:4;stroke-dasharray:none">
      <rect
         ry="4"
         rx="4"
         y="926.36218"
         x="-62"
         height="52"
         width="120"
         id="rect6055-6"
         style="fill:#000000;fill-opacity:1;stroke:#000000;stroke-opacity:1;stroke-width:8;stroke-miterlimit:4;stroke-dasharray:none" />
      <path
         sodipodi:end="6.2202512"
         sodipodi:start="3.1415927"
         transform="matrix(1.5,0,0,1.5,-184,808.36218)"
         d="m 92,112 c 0,-4.41828 3.581722,-8 8,-8 4.22292,0 7.71857,3.2823 7.98416,7.49686 L 100,112 z"
         sodipodi:ry="8"
         sodipodi:rx="8"
         sodipodi:cy="112"
         sodipodi:cx="100"
         id="path6150-2-49"
         style="fill:#000000;fill-opacity:1;stroke:#000000;stroke-opacity:1;stroke-width:5.33333333;stroke-miterlimit:4;stroke-dasharray:none"
         sodipodi:type="arc" />
      <rect
         ry="2.3333333"
         rx="0.7368421"
         y="930.36218"
         x="-62"
         height="28"
         width="120"
         id="rect6223-6"
         style="fill:#000000;fill-opacity:1;stroke:#000000;stroke-opacity:1;stroke-width:8;stroke-miterlimit:4;stroke-dasharray:none" />
      <rect
         ry="2.0999999"
         rx="0.7368421"
         y="930.36218"
         x="-62"
         height="36"
         width="8"
         id="rect6225-7"
         style="fill:#000000;fill-opacity:1;stroke:#000000;stroke-opacity:1;stroke-width:8;stroke-miterlimit:4;stroke-dasharray:none" />
      <rect
         ry="2"
         rx="1"
         y="930.36218"
         x="-62"
         height="32"
         width="4"
         id="rect6057-0"
         style="fill:#000000;fill-opacity:1;stroke:#000000;stroke-opacity:1;stroke-width:8;stroke-miterlimit:4;stroke-dasharray:none" />
      <rect
         ry="2"
         rx="2"
         y="934.36218"
         x="-56"
         height="20"
         width="16"
         id="rect6059-7"
         style="fill:#000000;fill-opacity:1;stroke:#000000;stroke-opacity:1;stroke-width:8;stroke-miterlimit:4;stroke-dasharray:none" />
      <rect
         ry="2"
         rx="2"
         y="934.36218"
         x="-38"
         height="20"
         width="38"
         id="rect6061-0"
         style="fill:#000000;fill-opacity:1;stroke:#000000;stroke-opacity:1;stroke-width:8;stroke-miterlimit:4;stroke-dasharray:none" />
      <rect
         ry="2"
         rx="2"
         y="934.36218"
         x="2"
         height="20"
         width="38"
         id="rect6061-5-4"
         style="fill:#000000;fill-opacity:1;stroke:#000000;stroke-opacity:1;stroke-width:8;stroke-miterlimit:4;stroke-dasharray:none" />
      <rect
         ry="2"
         rx="0.7368421"
         y="934.36218"
         x="42"
         height="20"
         width="14"
         id="rect6061-7-0"
         style="fill:#000000;fill-opacity:1;stroke:#000000;stroke-opacity:1;stroke-width:8;stroke-miterlimit:4;stroke-dasharray:none" />
      <rect
         ry="2"
         rx="0.7368421"
         y="974.36218"
         x="-62"
         height="4"
         width="120"
         id="rect6088-6"
         style="fill:#000000;fill-opacity:1;stroke:#000000;stroke-opacity:1;stroke-width:8;stroke-miterlimit:4;stroke-dasharray:none" />
      <rect
         ry="2"
         rx="0.7368421"
         y="930.36218"
         x="-58"
         height="16"
         width="4"
         id="rect6090-8"
         style="fill:#000000;fill-opacity:1;stroke:#000000;stroke-opacity:1;stroke-width:8;stroke-miterlimit:4;stroke-dasharray:none" />
      <rect
         ry="2"
         rx="0.64473683"
         y="970.36218"
         x="-62"
         height="4"
         width="7"
         id="rect6092-5"
         style="fill:#000000;fill-opacity:1;stroke:#000000;stroke-opacity:1;stroke-width:8;stroke-miterlimit:4;stroke-dasharray:none" />
      <rect
         ry="2"
         rx="0.7368421"
         y="966.36218"
         x="54"
         height="8"
         width="4"
         id="rect6094-4"
         style="fill:#000000;fill-opacity:1;stroke:#000000;stroke-opacity:1;stroke-width:8;stroke-miterlimit:4;stroke-dasharray:none" />
      <rect
         ry="2"
         rx="0.64473683"
         y="970.36218"
         x="-56"
         height="4"
         width="2"
         id="rect6123-4"
         style="fill:#000000;fill-opacity:1;stroke:#000000;stroke-opacity:1;stroke-width:8;stroke-miterlimit:4;stroke-dasharray:none" />
      <path
         sodipodi:open="true"
         sodipodi:end="6.2202512"
         sodipodi:start="0"
         transform="matrix(1.25,0,0,1.25,-159,836.36218)"
         d="m 108,112 c 0,4.41828 -3.58172,8 -8,8 -4.418278,0 -8,-3.58172 -8,-8 0,-4.41828 3.581722,-8 8,-8 4.22292,0 7.71857,3.2823 7.98416,7.49686"
         sodipodi:ry="8"
         sodipodi:rx="8"
         sodipodi:cy="112"
         sodipodi:cx="100"
         id="path6150-5"
         style="fill:#000000;fill-opacity:1;stroke:#000000;stroke-opacity:1;stroke-width:6.4;stroke-miterlimit:4;stroke-dasharray:none"
         sodipodi:type="arc" />
      <path
         sodipodi:open="true"
         sodipodi:end="6.2202512"
         sodipodi:start="0"
         transform="matrix(1.5,0,0,1.5,-184,808.36218)"
         d="m 104,112 c 0,2.20914 -1.79086,4 -4,4 -2.209139,0 -4,-1.79086 -4,-4 0,-2.20914 1.790861,-4 4,-4 2.11146,0 3.85929,1.64115 3.99208,3.74843"
         sodipodi:ry="4"
         sodipodi:rx="4"
         sodipodi:cy="112"
         sodipodi:cx="100"
         id="path6152-4"
         style="fill:#000000;fill-opacity:1;stroke:#000000;stroke-opacity:1;stroke-width:5.33333333;stroke-miterlimit:4;stroke-dasharray:none"
         sodipodi:type="arc" />
      <path
         sodipodi:end="6.2931252"
         sodipodi:start="3.1415927"
         transform="matrix(1.5,0,0,1.5,-114,808.36218)"
         d="m 92,112 c 0,-4.41828 3.581722,-8 8,-8 4.41828,0 8,3.58172 8,8 0,0.0265 -1.3e-4,0.053 -4e-4,0.0795 L 100,112 z"
         sodipodi:ry="8"
         sodipodi:rx="8"
         sodipodi:cy="112"
         sodipodi:cx="100"
         id="path6150-2-4-0"
         style="fill:#000000;fill-opacity:1;stroke:#000000;stroke-opacity:1;stroke-width:5.33333333;stroke-miterlimit:4;stroke-dasharray:none"
         sodipodi:type="arc" />
      <path
         sodipodi:open="true"
         sodipodi:end="6.2202512"
         sodipodi:start="0"
         transform="matrix(1.25,0,0,1.25,-89,836.36218)"
         d="m 108,112 c 0,4.41828 -3.58172,8 -8,8 -4.418278,0 -8,-3.58172 -8,-8 0,-4.41828 3.581722,-8 8,-8 4.22292,0 7.71857,3.2823 7.98416,7.49686"
         sodipodi:ry="8"
         sodipodi:rx="8"
         sodipodi:cy="112"
         sodipodi:cx="100"
         id="path6150-4-2"
         style="fill:#000000;fill-opacity:1;stroke:#000000;stroke-opacity:1;stroke-width:6.4;stroke-miterlimit:4;stroke-dasharray:none"
         sodipodi:type="arc" />
      <path
         sodipodi:open="true"
         sodipodi:end="6.2202512"
         sodipodi:start="0"
         transform="matrix(1.5,0,0,1.5,-114,808.36218)"
         d="m 104,112 c 0,2.20914 -1.79086,4 -4,4 -2.209139,0 -4,-1.79086 -4,-4 0,-2.20914 1.790861,-4 4,-4 2.11146,0 3.85929,1.64115 3.99208,3.74843"
         sodipodi:ry="4"
         sodipodi:rx="4"
         sodipodi:cy="112"
         sodipodi:cx="100"
         id="path6152-1-0"
         style="fill:#000000;fill-opacity:1;stroke:#000000;stroke-opacity:1;stroke-width:5.33333333;stroke-miterlimit:4;stroke-dasharray:none"
         sodipodi:type="arc" />
    </g>
    <rect
       style="fill:#ff6600;fill-opacity:1;stroke:none"
       id="rect6055"
       width="120"
       height="52"
       x="4"
       y="36"
       rx="4"
       ry="4"
       transform="translate(0,924.36218)" />
    <path
       sodipodi:type="arc"
       style="fill:#666666;fill-opacity:1;stroke:none"
       id="path6150-2"
       sodipodi:cx="100"
       sodipodi:cy="112"
       sodipodi:rx="8"
       sodipodi:ry="8"
       d="m 92,112 a 8,8 0 0 1 15.98416,-0.50314 L 100,112 z"
       transform="matrix(1.5,0,0,1.5,-118,842.36218)"
       sodipodi:start="3.1415927"
       sodipodi:end="6.2202512" />
    <rect
       style="fill:#d45500;fill-opacity:1;stroke:none"
       id="rect6223"
       width="120"
       height="28"
       x="4"
       y="964.36218"
       rx="0.7368421"
       ry="2.3333333" />
    <rect
       style="fill:#d45500;fill-opacity:1;stroke:none"
       id="rect6225"
       width="8"
       height="36"
       x="4"
       y="964.36218"
       rx="0.7368421"
       ry="2.0999999" />
    <rect
       style="fill:#9bbdd7;fill-opacity:1;stroke:none"
       id="rect6057"
       width="4"
       height="32"
       x="4"
       y="964.36218"
       rx="1"
       ry="2" />
    <rect
       style="fill:#9bbdd7;fill-opacity:1;stroke:none"
       id="rect6059"
       width="16"
       height="20"
       x="10"
       y="44"
       transform="translate(0,924.36218)"
       rx="2"
       ry="2" />
    <rect
       style="fill:#9bbdd7;fill-opacity:1;stroke:none"
       id="rect6061"
       width="38"
       height="20"
       x="28"
       y="44"
       transform="translate(0,924.36218)"
       rx="2"
       ry="2" />
    <rect
       style="fill:#9bbdd7;fill-opacity:1;stroke:none"
       id="rect6061-5"
       width="38"
       height="20"
       x="68"
       y="968.36218"
       rx="2"
       ry="2" />
    <rect
       style="fill:#9bbdd7;fill-opacity:1;stroke:none"
       id="rect6061-7"
       width="14"
       height="20"
       x="108"
       y="968.36218"
       rx="0.7368421"
       ry="2" />
    <rect
       style="fill:#666666;fill-opacity:1;stroke:none"
       id="rect6088"
       width="120"
       height="4"
       x="4"
       y="84"
       transform="translate(0,924.36218)"
       rx="0.7368421"
       ry="2" />
    <rect
       style="fill:#666666;fill-opacity:1;stroke:none"
       id="rect6090"
       width="4"
       height="16"
       x="8"
       y="40"
       transform="translate(0,924.36218)"
       rx="0.7368421"
       ry="2" />
    <rect
       style="fill:#ffff00;fill-opacity:1;stroke:none"
       id="rect6092"
       width="7"
       height="4"
       x="4"
       y="1004.3622"
       rx="0.64473683"
       ry="2" />
    <rect
       style="fill:#ff0000;fill-opacity:1;stroke:none"
       id="rect6094"
       width="4"
       height="8"
       x="120"
       y="76"
       transform="translate(0,924.36218)"
       rx="0.7368421"
       ry="2" />
    <rect
       style="fill:#ff0000;fill-opacity:1;stroke:none"
       id="rect6123"
       width="2"
       height="4"
       x="10"
       y="80"
       transform="translate(0,924.36218)"
       rx="0.64473683"
       ry="2" />
    <path
       sodipodi:type="arc"
       style="fill:#1a1a1a;fill-opacity:1;stroke:none"
       id="path6150"
       sodipodi:cx="100"
       sodipodi:cy="112"
       sodipodi:rx="8"
       sodipodi:ry="8"
       d="m 108,112 a 8,8 0 1 1 -0.0158,-0.50314"
       transform="matrix(1.25,0,0,1.25,-93,870.36218)"
       sodipodi:start="0"
       sodipodi:end="6.2202512"
       sodipodi:open="true" />
    <path
       sodipodi:type="arc"
       style="fill:#b3b3b3;fill-opacity:1;stroke:none"
       id="path6152"
       sodipodi:cx="100"
       sodipodi:cy="112"
       sodipodi:rx="4"
       sodipodi:ry="4"
       d="m 104,112 a 4,4 0 1 1 -0.008,-0.25157"
       transform="matrix(1.5,0,0,1.5,-118,842.36218)"
       sodipodi:start="0"
       sodipodi:end="6.2202512"
       sodipodi:open="true" />
    <path
       sodipodi:type="arc"
       style="fill:#666666;fill-opacity:1;stroke:none"
       id="path6150-2-4"
       sodipodi:cx="100"
       sodipodi:cy="112"
       sodipodi:rx="8"
       sodipodi:ry="8"
       d="m 92,112 a 8,8 0 1 1 15.9996,0.0795 L 100,112 z"
       transform="matrix(1.5,0,0,1.5,-48,842.36218)"
       sodipodi:start="3.1415927"
       sodipodi:end="6.2931252" />
    <path
       sodipodi:type="arc"
       style="fill:#1a1a1a;fill-opacity:1;stroke:none"
       id="path6150-4"
       sodipodi:cx="100"
       sodipodi:cy="112"
       sodipodi:rx="8"
       sodipodi:ry="8"
       d="m 108,112 a 8,8 0 1 1 -0.0158,-0.50314"
       transform="matrix(1.25,0,0,1.25,-23,870.36218)"
       sodipodi:start="0"
       sodipodi:end="6.2202512"
       sodipodi:open="true" />
    <path
       sodipodi:type="arc"
       style="fill:#b3b3b3;fill-opacity:1;stroke:none"
       id="path6152-1"
       sodipodi:cx="100"
       sodipodi:cy="112"
       sodipodi:rx="4"
       sodipodi:ry="4"
       d="m 104,112 a 4,4 0 1 1 -0.008,-0.25157"
       transform="matrix(1.5,0,0,1.5,-48,842.36218)"
       sodipodi:start="0"
       sodipodi:end="6.2202512"
       sodipodi:open="true" />
  </g>
</svg>
