<?xml version="1.0" encoding="UTF-8" standalone="no"?>
<!-- Created with Inkscape (http://www.inkscape.org/) -->

<svg
   xmlns:dc="http://purl.org/dc/elements/1.1/"
   xmlns:cc="http://creativecommons.org/ns#"
   xmlns:rdf="http://www.w3.org/1999/02/22-rdf-syntax-ns#"
   xmlns:svg="http://www.w3.org/2000/svg"
   xmlns="http://www.w3.org/2000/svg"
   xmlns:xlink="http://www.w3.org/1999/xlink"
   xmlns:sodipodi="http://sodipodi.sourceforge.net/DTD/sodipodi-0.dtd"
   xmlns:inkscape="http://www.inkscape.org/namespaces/inkscape"
   width="128"
   height="128"
   id="svg2"
   version="1.1"
   inkscape:version="0.48.4 r9939"
   sodipodi:docname="auto_bird.svg"
   inkscape:export-filename="/mnt/data/Programming/Inkscape/auto_bird.png"
   inkscape:export-xdpi="53.082191"
   inkscape:export-ydpi="53.082191">
  <defs
     id="defs4">
    <linearGradient
       id="linearGradient3840">
      <stop
         style="stop-color:#858585;stop-opacity:1;"
         offset="0"
         id="stop3842" />
      <stop
         style="stop-color:#464646;stop-opacity:1;"
         offset="1"
         id="stop3844" />
    </linearGradient>
    <linearGradient
       id="linearGradient3795">
      <stop
         style="stop-color:#8c9dff;stop-opacity:1;"
         offset="0"
         id="stop3797" />
      <stop
         style="stop-color:#001381;stop-opacity:1;"
         offset="1"
         id="stop3799" />
    </linearGradient>
    <radialGradient
       inkscape:collect="always"
       xlink:href="#linearGradient3795"
       id="radialGradient3801"
       cx="92"
       cy="54.596493"
       fx="92"
       fy="54.596493"
       r="33.5"
       gradientTransform="matrix(1.6119403,-9.7221085e-8,7.9217185e-8,1.3134329,-56.298512,-15.708818)"
       gradientUnits="userSpaceOnUse" />
    <radialGradient
       inkscape:collect="always"
       xlink:href="#linearGradient3795"
       id="radialGradient3811"
       cx="64"
       cy="64"
       fx="64"
       fy="64"
       r="64.5"
       gradientTransform="matrix(1,0,0,0.50387597,0,31.751938)"
       gradientUnits="userSpaceOnUse" />
    <radialGradient
       inkscape:collect="always"
       xlink:href="#linearGradient3840"
       id="radialGradient3848"
       cx="40.533333"
       cy="64"
       fx="40.533333"
       fy="64"
       r="8.5"
       gradientTransform="matrix(3.5294118,3.7647057e-7,-3.5764705e-7,3.3529412,-91.058801,-150.58825)"
       gradientUnits="userSpaceOnUse" />
    <radialGradient
       inkscape:collect="always"
       xlink:href="#linearGradient3840"
       id="radialGradient3856"
       cx="118.64286"
       cy="64"
       fx="118.64286"
       fy="64"
       r="5.5"
       gradientTransform="matrix(3.8181818,-3.6363637e-7,4.2424244e-7,4.4545455,-341.00003,-221.09087)"
       gradientUnits="userSpaceOnUse" />
    <filter
       inkscape:collect="always"
       id="filter3810"
       x="-0.072"
       width="1.144"
       y="-0.144"
       height="1.288">
      <feGaussianBlur
         inkscape:collect="always"
         stdDeviation="3.84"
         id="feGaussianBlur3812" />
    </filter>
    <filter
       inkscape:collect="always"
       id="filter4019"
       x="-0.75"
       width="2.5"
       y="-0.5"
       height="2">
      <feGaussianBlur
         inkscape:collect="always"
         stdDeviation="1.25"
         id="feGaussianBlur4021" />
    </filter>
    <filter
       inkscape:collect="always"
       id="filter4025"
       x="-0.675"
       width="2.35"
       y="-0.54"
       height="2.08">
      <feGaussianBlur
         inkscape:collect="always"
         stdDeviation="2.25"
         id="feGaussianBlur4027" />
    </filter>
    <filter
       inkscape:collect="always"
       id="filter4033"
       x="-0.22946476"
       width="1.4589295"
       y="-0.83501181"
       height="2.6700236">
      <feGaussianBlur
         inkscape:collect="always"
         stdDeviation="7.3679554"
         id="feGaussianBlur4035" />
    </filter>
    <filter
       inkscape:collect="always"
       id="filter4052"
       x="-0.25090909"
       width="1.5018182"
       y="-0.23"
       height="1.46">
      <feGaussianBlur
         inkscape:collect="always"
         stdDeviation="6.9"
         id="feGaussianBlur4054" />
    </filter>
  </defs>
  <sodipodi:namedview
     id="base"
     pagecolor="#ffffff"
     bordercolor="#666666"
     borderopacity="1.0"
     inkscape:pageopacity="0.0"
     inkscape:pageshadow="2"
     inkscape:zoom="4.01"
     inkscape:cx="2.4755185"
     inkscape:cy="65.211581"
     inkscape:document-units="px"
     inkscape:current-layer="layer1"
     showgrid="true"
     inkscape:window-width="1280"
     inkscape:window-height="720"
     inkscape:window-x="0"
     inkscape:window-y="29"
     inkscape:window-maximized="1">
    <inkscape:grid
       type="xygrid"
       id="grid2985"
       empspacing="2"
       visible="true"
       enabled="true"
       snapvisiblegridlinesonly="true" />
  </sodipodi:namedview>
  <metadata
     id="metadata7">
    <rdf:RDF>
      <cc:Work
         rdf:about="">
        <dc:format>image/svg+xml</dc:format>
        <dc:type
           rdf:resource="http://purl.org/dc/dcmitype/StillImage" />
        <dc:title></dc:title>
      </cc:Work>
    </rdf:RDF>
  </metadata>
  <g
     inkscape:label="Ebene 1"
     inkscape:groupmode="layer"
     id="layer1"
     transform="translate(0,-924.36218)">
    <rect
       style="fill:#000000;stroke:none;filter:url(#filter3810)"
       id="rect3780"
       width="128"
       height="64"
       x="0"
       y="32"
       transform="translate(0,924.36218)"
       rx="8"
       ry="14" />
    <rect
       style="fill:#333333;stroke:#000000"
       id="rect3817"
       width="28"
       height="8"
       x="94"
       y="1014.3622"
       rx="2"
       ry="8" />
    <rect
       ry="8"
       rx="2"
       y="1014.3622"
       x="16"
       height="8"
       width="28"
       id="rect3815"
       style="fill:#333333;stroke:#000000" />
    <rect
       ry="8"
       rx="2"
       y="954.36218"
       x="94"
       height="8"
       width="28"
       id="rect3819"
       style="fill:#333333;stroke:#000000" />
    <rect
       style="fill:#333333;stroke:#000000"
       id="rect3813"
       width="28"
       height="8"
       x="16"
       y="30"
       transform="translate(0,924.36218)"
       rx="2"
       ry="8" />
    <rect
       style="fill:url(#radialGradient3811);fill-rule:evenodd;stroke:#000000;stroke-width:1px;stroke-linecap:butt;stroke-linejoin:miter;stroke-opacity:1;fill-opacity:1"
       id="rect2987"
       width="128"
       height="64"
       x="0"
       y="32"
       transform="translate(0,924.36218)"
       ry="8"
       rx="8" />
    <rect
       style="fill:url(#radialGradient3801);fill-rule:evenodd;stroke:#000000;stroke-width:1px;stroke-linecap:butt;stroke-linejoin:miter;stroke-opacity:1;fill-opacity:1"
       id="rect2991"
       width="66"
       height="56"
       x="50"
       y="36"
       transform="translate(0,924.36218)"
       rx="6"
       ry="4" />
    <path
       transform="translate(0,924.36218)"
       style="fill:#e6e6e6;fill-rule:evenodd;stroke:#000000;stroke-width:1px;stroke-linecap:butt;stroke-linejoin:miter;stroke-opacity:1"
       d="m 30,34 18,2 c 1.101223,0.122358 2,0.892 2,2 l 0,52 c 0,1.108 -0.898777,1.877642 -2,2 l -18,2 c -1.101223,0.122358 -2,-0.892 -2,-2 l 0,-56 c 0,-1.108 0.898777,-2.122358 2,-2 z"
       id="rect2993"
       inkscape:connector-curvature="0"
       sodipodi:nodetypes="sssssssss" />
    <rect
       style="fill:#e6e6e6;stroke:#000000"
       id="rect3000"
       width="26"
       height="4"
       x="52"
       y="32"
       transform="translate(0,924.36218)"
       rx="2"
       ry="2" />
    <rect
       style="fill:#e6e6e6;stroke:#000000"
       id="rect3002"
       width="30"
       height="4"
       x="80"
       y="32"
       transform="translate(0,924.36218)"
       rx="2"
       ry="2" />
    <rect
       ry="2"
       rx="2"
       y="1016.3622"
       x="52"
       height="4"
       width="26"
       id="rect3004"
       style="fill:#e6e6e6;stroke:#000000" />
    <rect
       ry="2"
       rx="2"
       y="1016.3622"
       x="80"
       height="4"
       width="30"
       id="rect3006"
       style="fill:#e6e6e6;stroke:#000000" />
    <path
       style="fill:#ffff00;stroke:#000000"
       d="M 4,33.09375 C 1.6142796,34.475349 0,37.03383 0,40 l 0,6 2,0 c 1.108,0 2,-0.892 2,-2 L 4,33.09375 z"
       transform="translate(0,924.36218)"
       id="rect3008"
       inkscape:connector-curvature="0"
       inkscape:transform-center-y="-24.453125" />
    <path
       inkscape:transform-center-y="24.45312"
       inkscape:connector-curvature="0"
       id="path3013"
       d="m 4,1019.2684 c -2.3857204,-1.3816 -4,-3.94 -4,-6.9062 l 0,-6 2,0 c 1.108,0 2,0.892 2,2 l 0,10.9062 z"
       style="fill:#ffff00;stroke:#000000" />
    <path
       style="fill:url(#radialGradient3848);stroke:#000000;fill-opacity:1"
       d="M 28 36 L 28 92 L 36 92 C 40.432 92 44 88.432 44 84 L 44 44 C 44 39.568 40.432 36 36 36 L 28 36 z "
       transform="translate(0,924.36218)"
       id="rect3015" />
    <path
       sodipodi:type="arc"
       style="fill:#999999;stroke:#000000"
       id="path3020"
       sodipodi:cx="39"
       sodipodi:cy="84"
       sodipodi:rx="3"
       sodipodi:ry="8"
       d="m 42,84 c 0,4.418278 -1.343146,8 -3,8 -1.656854,0 -3,-3.581722 -3,-8 0,-4.418278 1.343146,-8 3,-8 1.656854,0 3,3.581722 3,8 z"
       transform="translate(3.7406484,921.61904)" />
    <rect
       style="fill:#ff0000;stroke:#000000"
       id="rect3021"
       width="2"
       height="10"
       x="126"
       y="40"
       transform="translate(0,924.36218)"
       rx="2"
       ry="0" />
    <rect
       ry="0"
       rx="2"
       y="1002.3622"
       x="126"
       height="10"
       width="2"
       id="rect3023"
       style="fill:#ff0000;stroke:#000000" />
    <path
       sodipodi:nodetypes="sssssssss"
       inkscape:connector-curvature="0"
       id="path2996"
       d="m 124,960.36218 -6,2 c -1.05114,0.35038 -2,0.892 -2,2 l 0,48.00002 c 0,1.108 0.94885,1.6496 2,2 l 6,2 c 1.05114,0.3504 2,-0.892 2,-2 l 0,-52.00002 c 0,-1.108 -0.94886,-2.35038 -2,-2 z"
       style="fill:#e6e6e6;fill-rule:evenodd;stroke:#000000;stroke-width:1px;stroke-linecap:butt;stroke-linejoin:miter;stroke-opacity:1" />
    <path
       sodipodi:type="arc"
       style="fill:#ff0000;stroke:none;filter:url(#filter4025)"
       id="path4023"
       sodipodi:cx="130"
       sodipodi:cy="45"
       sodipodi:rx="4"
       sodipodi:ry="5"
       d="m 134,45 a 4,5 0 1 1 -8,0 4,5 0 1 1 8,0 z"
       transform="translate(-2.244389,924.1128)" />
    <path
       transform="translate(-2.244389,962.1128)"
       d="m 134,45 a 4,5 0 1 1 -8,0 4,5 0 1 1 8,0 z"
       sodipodi:ry="5"
       sodipodi:rx="4"
       sodipodi:cy="45"
       sodipodi:cx="130"
       id="path4029"
       style="fill:#ff0000;stroke:none;filter:url(#filter4025)"
       sodipodi:type="arc" />
    <path
       style="fill:url(#radialGradient3856);stroke:#000000;fill-opacity:1"
       d="M 116 40 L 116 88 L 122 88 C 123.46583 88 124.82102 87.589012 126 86.90625 L 126 41.09375 C 124.82102 40.410988 123.46583 40 122 40 L 116 40 z "
       transform="translate(0,924.36218)"
       id="rect3022" />
    <path
       style="fill:#ffff00;stroke:none;filter:url(#filter4052);opacity:0.75"
       d="M -43 28 C -54.59798 28 -64 37.40202 -64 49 C -64 54.877632 -61.578975 60.188233 -57.6875 64 C -61.578975 67.811767 -64 73.122368 -64 79 C -64 90.59798 -54.59798 100 -43 100 C -37.492327 100 -32.495526 97.875093 -28.75 94.40625 L 2 90 L 2 84 L -22.46875 74.65625 C -23.339088 70.531665 -25.410187 66.842866 -28.3125 64 C -25.403228 61.150318 -23.335354 57.449117 -22.46875 53.3125 L 2 44 L 2 38 L -28.75 33.59375 C -32.495526 30.124907 -37.492327 28 -43 28 z "
       transform="translate(0,924.36218)"
       id="path4039" />
  </g>
</svg>
