<?xml version="1.0" encoding="UTF-8" standalone="no"?>
<!-- Created with Inkscape (http://www.inkscape.org/) -->

<svg
   xmlns:dc="http://purl.org/dc/elements/1.1/"
   xmlns:cc="http://creativecommons.org/ns#"
   xmlns:rdf="http://www.w3.org/1999/02/22-rdf-syntax-ns#"
   xmlns:svg="http://www.w3.org/2000/svg"
   xmlns="http://www.w3.org/2000/svg"
   xmlns:sodipodi="http://sodipodi.sourceforge.net/DTD/sodipodi-0.dtd"
   xmlns:inkscape="http://www.inkscape.org/namespaces/inkscape"
   width="128"
   height="128"
   id="svg3991"
   version="1.1"
   inkscape:version="0.48.3.1 r9886"
   sodipodi:docname="truck.svg">
  <defs
     id="defs3993" />
  <sodipodi:namedview
     id="base"
     pagecolor="#ffffff"
     bordercolor="#666666"
     borderopacity="1.0"
     inkscape:pageopacity="0.0"
     inkscape:pageshadow="2"
     inkscape:zoom="3.959798"
     inkscape:cx="50.613153"
     inkscape:cy="47.840494"
     inkscape:document-units="px"
     inkscape:current-layer="layer1"
     showgrid="true"
     inkscape:window-width="1024"
     inkscape:window-height="576"
     inkscape:window-x="0"
     inkscape:window-y="0"
     inkscape:window-maximized="1">
    <inkscape:grid
       type="xygrid"
       id="grid4052"
       empspacing="1"
       visible="true"
       enabled="true"
       snapvisiblegridlinesonly="false"
       spacingx="4px"
       spacingy="4px" />
  </sodipodi:namedview>
  <metadata
     id="metadata3996">
    <rdf:RDF>
      <cc:Work
         rdf:about="">
        <dc:format>image/svg+xml</dc:format>
        <dc:type
           rdf:resource="http://purl.org/dc/dcmitype/StillImage" />
        <dc:title />
      </cc:Work>
    </rdf:RDF>
  </metadata>
  <g
     inkscape:label="Layer 1"
     inkscape:groupmode="layer"
     id="layer1"
     transform="translate(0,-924.36218)">
    <path
       style="fill:none;stroke:#000000;stroke-width:7.76119757;stroke-linecap:round;stroke-linejoin:round;stroke-miterlimit:4;stroke-opacity:1;stroke-dasharray:none"
       d="m 43.808321,959.43274 c -2.183961,0 -3.941233,1.75727 -3.941233,3.94123 l 0,39.41243 c 0,0.7216 0.209875,1.39 0.545709,1.9706 l -3.54711,0 c 0.334197,-0.5795 0.54571,-1.2509 0.54571,-1.9706 l 0,-31.52992 c 0,-2.184 -1.757271,-3.94128 -3.941233,-3.94128 l -23.6777159,0 c -2.1839612,0 -3.9412328,1.75728 -3.9412328,3.94128 l 0,26.13342 -0.4850748,0 c -0.5459904,0 -0.9701497,0.87857 -0.9701497,1.97057 l 0,1.97073 c 0,1.092 0.4241593,1.9705 0.9701497,1.9705 l 0.5457091,0 c 0.067617,0.5307 0.2596101,1.0131 0.5153921,1.4553 l -1.5461761,0 c -0.5459903,0 -1.0004668,0.8787 -1.0004668,1.9706 0,1.092 0.4544765,1.9706 1.0004668,1.9706 l 10.5503774,0 c 1.356484,3.3322 4.608667,5.6694 8.428175,5.6694 3.819509,0 7.071692,-2.3372 8.428176,-5.6694 l 45.233228,0 c 1.356484,3.3322 4.608666,5.6694 8.428175,5.6694 3.819509,0 7.071692,-2.3372 8.428176,-5.6694 l 2.091885,0 c 1.356482,3.3322 4.608662,5.6694 8.428172,5.6694 3.81951,0 7.10201,-2.3372 8.45849,-5.6694 l 9.79245,0 c 0.54599,0 0.97015,-0.8786 0.97015,-1.9706 0,-1.0919 -0.42416,-1.9706 -0.97015,-1.9706 l -3.51679,0 c 0.25593,-0.4424 0.44786,-0.9243 0.51539,-1.4553 l 1.03079,0 c 0.54599,0 0.97015,-0.8785 0.97015,-1.9705 l 0,-6.42731 c 0,-1.092 -0.42416,-1.97066 -0.97015,-1.97066 l -1.00047,0 0,-29.55926 c 0,-2.18396 -1.75727,-3.94123 -3.94123,-3.94123 l -72.427739,0 z"
       id="rect3008-8"
       inkscape:connector-curvature="0" />
    <path
       inkscape:connector-curvature="0"
       id="rect3008"
       d="m 9.8067047,967.31707 23.6530123,0 c 2.183961,0 3.942168,1.75821 3.942168,3.94217 l 0,31.53736 c 0,2.184 -1.758207,3.9422 -3.942168,3.9422 l -23.6530123,0 c -2.1839614,0 -3.9421686,-1.7582 -3.9421686,-3.9422 l 0,-31.53736 c 0,-2.18396 1.7582072,-3.94217 3.9421686,-3.94217 z"
       style="fill:#ac0000;fill-opacity:1;fill-rule:evenodd;stroke:none;stroke-width:0.12319276999999999px;stroke-linecap:butt;stroke-linejoin:miter;stroke-opacity:1" />
    <path
       inkscape:connector-curvature="0"
       id="rect3778"
       d="m 43.807909,959.43273 72.437351,0 c 2.18396,0 3.94217,1.75821 3.94217,3.94217 l 0,39.4217 c 0,2.184 -1.75821,3.9422 -3.94217,3.9422 l -72.437351,0 c -2.183961,0 -3.942168,-1.7582 -3.942168,-3.9422 l 0,-39.4217 c 0,-2.18396 1.758207,-3.94217 3.942168,-3.94217 z"
       style="fill:#e3e3e3;fill-opacity:1" />
    <path
       inkscape:connector-curvature="0"
       id="rect3780"
       d="m 4.8789939,1004.7677 118.2650561,0 c 0.54599,0 0.98555,0.8791 0.98555,1.9711 0,1.0919 -0.43956,1.971 -0.98555,1.971 l -118.2650561,0 c -0.5459903,0 -0.9855421,-0.8791 -0.9855421,-1.971 0,-1.092 0.4395518,-1.9711 0.9855421,-1.9711 z"
       style="fill:#333333;fill-opacity:1" />
    <path
       inkscape:connector-curvature="0"
       id="rect3782"
       d="m 7.8356204,971.25924 0.4927711,0 c 0.5459903,0 0.9855421,0.8791 0.9855421,1.97108 l 0,10.3482 c 0,1.09198 -0.4395518,1.97108 -0.9855421,1.97108 l -0.4927711,0 c -0.5459904,0 -0.9855422,-0.8791 -0.9855422,-1.97108 l 0,-10.3482 c 0,-1.09198 0.4395518,-1.97108 0.9855422,-1.97108 z"
       style="fill:#a1d5e8;fill-opacity:1" />
    <path
       inkscape:connector-curvature="0"
       id="rect3784"
       d="m 11.777789,971.25924 10.840964,0 c 0.54599,0 0.985542,0.8791 0.985542,1.97108 l 0,7.39157 c 0,1.09198 -0.439552,1.97108 -0.985542,1.97108 l -10.840964,0 c -0.54599,0 -0.985542,-0.8791 -0.985542,-1.97108 l 0,-7.39157 c 0,-1.09198 0.439552,-1.97108 0.985542,-1.97108 z"
       style="fill:#a1d5e8;fill-opacity:1" />
    <path
       inkscape:connector-curvature="0"
       id="rect3786"
       d="m 5.371765,997.37611 2.9566265,0 c 0.5459903,0 0.9855421,0.8791 0.9855421,1.97108 l 0,1.97111 c 0,1.092 -0.4395518,1.9711 -0.9855421,1.9711 l -2.9566265,0 c -0.5459904,0 -0.9855422,-0.8791 -0.9855422,-1.9711 l 0,-1.97111 c 0,-1.09198 0.4395518,-1.97108 0.9855422,-1.97108 z"
       style="fill:#ffe100;fill-opacity:1" />
    <path
       inkscape:connector-curvature="0"
       id="rect3788"
       d="m 118.21634,992.94117 2.95663,0 c 0.54599,0 0.98554,0.8791 0.98554,1.97108 l 0,6.40605 c 0,1.092 -0.43955,1.9711 -0.98554,1.9711 l -2.95663,0 c -0.54599,0 -0.98554,-0.8791 -0.98554,-1.9711 l 0,-6.40605 c 0,-1.09198 0.43955,-1.97108 0.98554,-1.97108 z"
       style="fill:#ff0000;fill-opacity:1" />
    <path
       inkscape:connector-curvature="0"
       id="rect3790"
       d="m 9.3139336,969.78093 2.4638554,0 c 0.54599,0 0.985542,0.8791 0.985542,1.97108 l 0,6.8988 c 0,1.09198 -0.439552,1.97108 -0.985542,1.97108 l -2.4638554,0 c -0.5459903,0 -0.9855421,-0.8791 -0.9855421,-1.97108 l 0,-6.8988 c 0,-1.09198 0.4395518,-1.97108 0.9855421,-1.97108 z"
       style="fill:#000000;fill-opacity:1" />
    <path
       inkscape:connector-curvature="0"
       id="rect3792"
       d="m 45.778994,966.8243 69.480726,0 c 0.54599,0 0.98554,0.8791 0.98554,1.97108 l 0,1.47832 c 0,1.09198 -0.43955,1.97108 -0.98554,1.97108 l -69.480726,0 c -0.545991,0 -0.985543,-0.8791 -0.985543,-1.97108 l 0,-1.47832 c 0,-1.09198 0.439552,-1.97108 0.985543,-1.97108 z"
       style="fill:#ffb500;fill-opacity:1" />
    <path
       inkscape:connector-curvature="0"
       id="rect3794"
       d="m 46.764536,994.41948 65.045784,0 c 0.81898,0 1.47831,0.65933 1.47831,1.47831 0,0.81899 -0.65933,1.47832 -1.47831,1.47832 l -65.045784,0 c -0.818986,0 -1.478314,-0.65933 -1.478314,-1.47832 0,-0.81898 0.659328,-1.47831 1.478314,-1.47831 z"
       style="fill:#ffb500;fill-opacity:1" />
    <g
       id="text3796"
       style="font-size:54.11530685px;font-style:normal;font-weight:normal;line-height:125%;letter-spacing:0px;word-spacing:0px;fill:#ffbd00;fill-opacity:1;stroke:none;font-family:Sans"
       transform="matrix(0.1271787,0,0,0.11933177,-19.266789,929.32908)">
      <path
         inkscape:connector-curvature="0"
         id="path4114"
         style="font-size:194.81510925px;font-style:italic;font-variant:normal;font-weight:bold;font-stretch:normal;fill:#ffbd00;font-family:Ubuntu;-inkscape-font-specification:Ubuntu Bold Italic"
         d="m 623.31908,510.70706 c -5.32506,2.59754 -11.23444,4.67556 -17.72817,6.23408 -6.49393,1.55852 -14.41641,2.33778 -23.76744,2.33779 -8.05243,-10e-6 -15.4554,-1.29877 -22.20893,-3.89631 -6.62376,-2.7274 -12.33833,-6.55876 -17.14373,-11.49409 -4.67559,-4.9353 -8.31214,-10.90962 -10.90964,-17.92299 -2.59756,-7.14318 -3.89633,-15.13059 -3.89631,-23.96226 -2e-5,-10.13032 1.75331,-20.19576 5.26001,-30.19634 3.63652,-10.00041 8.89652,-18.89696 15.78003,-26.68967 7.01329,-7.92236 15.52021,-14.35125 25.52078,-19.28669 10.1303,-4.93519 21.75426,-7.40284 34.8719,-7.40298 6.23397,1.4e-4 12.33817,0.71446 18.31262,2.14297 6.10408,1.42878 12.46803,3.96137 19.09188,7.59779 l -10.90964,23.57262 c -5.45495,-2.85718 -10.32533,-4.80532 -14.61114,-5.84445 -4.28604,-1.0389 -8.89666,-1.55841 -13.83187,-1.55852 -7.40307,1.1e-4 -14.09172,1.49369 -20.06596,4.48075 -5.84453,2.98727 -10.90972,7.07838 -15.19558,12.27335 -4.15612,5.06528 -7.33809,10.97467 -9.54594,17.72818 -2.20796,6.75366 -3.31191,13.89687 -3.31185,21.42966 -6e-5,11.4292 2.4676,19.7413 7.40297,24.93633 5.06513,5.1951 12.27328,7.79263 21.62448,7.79261 6.23399,2e-5 11.94856,-0.64936 17.14373,-1.94816 5.32484,-1.29874 10.26015,-2.98713 14.80595,-5.06519 l 3.31185,24.74152" />
      <path
         inkscape:connector-curvature="0"
         id="path4116"
         style="font-size:194.81510925px;font-style:italic;font-variant:normal;font-weight:bold;font-stretch:normal;fill:#ffbd00;font-family:Ubuntu;-inkscape-font-specification:Ubuntu Bold Italic"
         d="m 758.06721,395.96096 c 0.25963,5.32506 0.58432,11.36432 0.97408,18.11781 0.51937,6.75368 1.03888,13.76702 1.55852,21.04003 0.64925,7.14329 1.29863,14.28651 1.94815,21.42966 0.64925,7.14327 1.29863,13.76698 1.94815,19.87114 3.37666,-6.62367 6.81839,-13.76688 10.3252,-21.42966 3.50652,-7.66266 7.01319,-15.58513 10.52002,-23.76744 3.50651,-8.18215 6.94824,-16.49425 10.3252,-24.93634 3.5065,-8.44187 6.81835,-16.68903 9.93557,-24.74152 l 32.14449,0 c -10.13058,24.67669 -20.45577,48.18436 -30.9756,70.52307 -10.52018,22.20897 -21.81945,43.70355 -33.89783,64.4838 l -28.44301,0 c -1.03912,-7.14321 -2.0132,-13.96173 -2.92222,-20.45558 -0.77938,-6.62369 -1.55864,-13.11752 -2.33778,-19.48151 -0.6495,-6.36392 -1.29888,-12.79281 -1.94815,-19.2867 -0.51962,-6.49377 -1.03913,-13.24735 -1.55853,-20.26077 -7.40307,13.767 -14.7411,27.27417 -22.0141,40.52154 -7.1433,13.11758 -14.80602,26.10524 -22.98819,38.96302 l -28.443,0 c -1.03905,-12.07852 -1.81831,-24.02717 -2.33778,-35.84598 -0.38966,-11.81873 -0.58448,-23.83232 -0.58445,-36.04079 -3e-5,-10.51994 0.19479,-20.975 0.58445,-31.36523 0.38959,-10.51991 0.9091,-21.10485 1.55852,-31.75487 l 30.58597,0 c -0.64945,11.42928 -1.29883,22.66361 -1.94815,33.70302 -0.51957,10.90973 -0.77932,22.27394 -0.77926,34.09264 -6e-5,4.41587 -6e-5,8.89662 0,13.44224 -6e-5,4.54574 0.12981,9.09142 0.38963,13.63706 3.63648,-6.36391 7.46784,-13.1175 11.49409,-20.26077 4.0261,-7.14315 7.98734,-14.28637 11.88372,-21.42966 3.89622,-7.14313 7.5977,-14.02659 11.10446,-20.6504 3.50658,-6.75349 6.49374,-12.79275 8.9615,-18.11781 l 24.93633,0" />
    </g>
    <path
       inkscape:connector-curvature="0"
       id="rect3800"
       d="m 91.113933,975.20141 19.218077,0 c 0.81898,0 1.47831,0.65933 1.47831,1.47831 l 0,1.97109 c 0,0.81898 -0.65933,1.47831 -1.47831,1.47831 l -19.218077,0 c -0.818986,0 -1.478313,-0.65933 -1.478313,-1.47831 l 0,-1.97109 c 0,-0.81898 0.659327,-1.47831 1.478313,-1.47831 z"
       style="fill:#ffbd00;fill-opacity:1" />
    <path
       inkscape:connector-curvature="0"
       id="rect3802"
       d="m 88.157306,983.08575 13.304824,0 c 0.81898,0 1.47831,0.65932 1.47831,1.47831 l 0,1.97108 c 0,0.81899 -0.65933,1.47832 -1.47831,1.47832 l -13.304824,0 c -0.818985,0 -1.478313,-0.65933 -1.478313,-1.47832 l 0,-1.97108 c 0,-0.81899 0.659328,-1.47831 1.478313,-1.47831 z"
       style="fill:#ffbd00;fill-opacity:1" />
    <path
       style="fill:#1a1a1a;fill-opacity:1"
       d="m 32.966944,1005.2604 c 0,5.0348 -4.08149,9.1163 -9.116264,9.1163 -5.034774,0 -9.116265,-4.0815 -9.116265,-9.1163 0,-5.0347 4.081491,-9.11622 9.116265,-9.11622 5.034774,0 9.116264,4.08152 9.116264,9.11622 z"
       id="path3804"
       inkscape:connector-curvature="0" />
    <path
       style="fill:#b3b3b3;fill-opacity:1"
       d="m 28.532005,1005.2604 c 0,2.5855 -2.0959,4.6814 -4.681325,4.6814 -2.585424,0 -4.681325,-2.0959 -4.681325,-4.6814 0,-2.5854 2.095901,-4.6813 4.681325,-4.6813 2.585425,0 4.681325,2.0959 4.681325,4.6813 z"
       id="path3806"
       inkscape:connector-curvature="0" />
    <path
       style="fill:#1a1a1a;fill-opacity:1"
       d="m 95.056101,1005.2604 c 0,5.0348 -4.08149,9.1163 -9.116264,9.1163 -5.034774,0 -9.116265,-4.0815 -9.116265,-9.1163 0,-5.0347 4.081491,-9.11622 9.116265,-9.11622 5.034774,0 9.116264,4.08152 9.116264,9.11622 z"
       id="path3804-1"
       inkscape:connector-curvature="0" />
    <path
       style="fill:#b3b3b3;fill-opacity:1"
       d="m 90.621162,1005.2604 c 0,2.5855 -2.0959,4.6814 -4.681325,4.6814 -2.585424,0 -4.681325,-2.0959 -4.681325,-4.6814 0,-2.5854 2.095901,-4.6813 4.681325,-4.6813 2.585425,0 4.681325,2.0959 4.681325,4.6813 z"
       id="path3806-7"
       inkscape:connector-curvature="0" />
    <path
       style="fill:#1a1a1a;fill-opacity:1"
       d="m 114.02779,1005.2604 c 0,5.0348 -4.08149,9.1163 -9.11627,9.1163 -5.034771,0 -9.116262,-4.0815 -9.116262,-9.1163 0,-5.0347 4.081491,-9.11622 9.116262,-9.11622 5.03478,0 9.11627,4.08152 9.11627,9.11622 z"
       id="path3804-7"
       inkscape:connector-curvature="0" />
    <path
       style="fill:#b3b3b3;fill-opacity:1"
       d="m 109.59285,1005.2604 c 0,2.5855 -2.0959,4.6814 -4.68133,4.6814 -2.58542,0 -4.68132,-2.0959 -4.68132,-4.6814 0,-2.5854 2.0959,-4.6813 4.68132,-4.6813 2.58543,0 4.68133,2.0959 4.68133,4.6813 z"
       id="path3806-8"
       inkscape:connector-curvature="0" />
  </g>
</svg>
