<?xml version="1.0" encoding="UTF-8" standalone="no"?>
<!-- Created with Inkscape (http://www.inkscape.org/) -->

<svg
   xmlns:dc="http://purl.org/dc/elements/1.1/"
   xmlns:cc="http://creativecommons.org/ns#"
   xmlns:rdf="http://www.w3.org/1999/02/22-rdf-syntax-ns#"
   xmlns:svg="http://www.w3.org/2000/svg"
   xmlns="http://www.w3.org/2000/svg"
   xmlns:sodipodi="http://sodipodi.sourceforge.net/DTD/sodipodi-0.dtd"
   xmlns:inkscape="http://www.inkscape.org/namespaces/inkscape"
   width="128"
   height="128"
   id="svg2"
   version="1.1"
   inkscape:version="0.48.3.1 r9886"
   sodipodi:docname="van_128.svg">
  <defs
     id="defs4">
    <marker
       inkscape:stockid="EmptyTriangleOutM"
       orient="auto"
       refY="0.0"
       refX="0.0"
       id="EmptyTriangleOutM"
       style="overflow:visible">
      <path
         id="path3949"
         d="M 5.77,0.0 L -2.88,5.0 L -2.88,-5.0 L 5.77,0.0 z "
         style="fill-rule:evenodd;fill:#FFFFFF;stroke:#000000;stroke-width:1.0pt"
         transform="scale(0.4) translate(-4.5,0)" />
    </marker>
    <marker
       inkscape:stockid="EmptyTriangleOutS"
       orient="auto"
       refY="0.0"
       refX="0.0"
       id="EmptyTriangleOutS"
       style="overflow:visible">
      <path
         id="path3952"
         d="M 5.77,0.0 L -2.88,5.0 L -2.88,-5.0 L 5.77,0.0 z "
         style="fill-rule:evenodd;fill:#FFFFFF;stroke:#000000;stroke-width:1.0pt"
         transform="scale(0.2) translate(-3.0,0)" />
    </marker>
    <marker
       inkscape:stockid="EmptyTriangleInS"
       orient="auto"
       refY="0.0"
       refX="0.0"
       id="EmptyTriangleInS"
       style="overflow:visible">
      <path
         id="path3943"
         d="M 5.77,0.0 L -2.88,5.0 L -2.88,-5.0 L 5.77,0.0 z "
         style="fill-rule:evenodd;fill:#FFFFFF;stroke:#000000;stroke-width:1.0pt"
         transform="scale(-0.2) translate(-3.0,0)" />
    </marker>
    <marker
       inkscape:stockid="DiamondSstart"
       orient="auto"
       refY="0.0"
       refX="0.0"
       id="DiamondSstart"
       style="overflow:visible">
      <path
         id="path3880"
         d="M 0,-7.0710768 L -7.0710894,0 L 0,7.0710589 L 7.0710462,0 L 0,-7.0710768 z "
         style="fill-rule:evenodd;stroke:#000000;stroke-width:1.0pt"
         transform="scale(0.2) translate(6,0)" />
    </marker>
    <marker
       inkscape:stockid="Arrow1Send"
       orient="auto"
       refY="0.0"
       refX="0.0"
       id="Arrow1Send"
       style="overflow:visible;">
      <path
         id="path3801"
         d="M 0.0,0.0 L 5.0,-5.0 L -12.5,0.0 L 5.0,5.0 L 0.0,0.0 z "
         style="fill-rule:evenodd;stroke:#000000;stroke-width:1.0pt;"
         transform="scale(0.2) rotate(180) translate(6,0)" />
    </marker>
    <marker
       inkscape:stockid="EmptyTriangleOutL"
       orient="auto"
       refY="0.0"
       refX="0.0"
       id="EmptyTriangleOutL"
       style="overflow:visible">
      <path
         id="path3946"
         d="M 5.77,0.0 L -2.88,5.0 L -2.88,-5.0 L 5.77,0.0 z "
         style="fill-rule:evenodd;fill:#FFFFFF;stroke:#000000;stroke-width:1.0pt"
         transform="scale(0.8) translate(-6,0)" />
    </marker>
    <marker
       inkscape:stockid="Arrow1Lend"
       orient="auto"
       refY="0.0"
       refX="0.0"
       id="Arrow1Lend"
       style="overflow:visible;">
      <path
         id="path3789"
         d="M 0.0,0.0 L 5.0,-5.0 L -12.5,0.0 L 5.0,5.0 L 0.0,0.0 z "
         style="fill-rule:evenodd;stroke:#000000;stroke-width:1.0pt;"
         transform="scale(0.8) rotate(180) translate(12.5,0)" />
    </marker>
    <marker
       inkscape:stockid="TriangleOutL"
       orient="auto"
       refY="0.0"
       refX="0.0"
       id="TriangleOutL"
       style="overflow:visible">
      <path
         id="path3928"
         d="M 5.77,0.0 L -2.88,5.0 L -2.88,-5.0 L 5.77,0.0 z "
         style="fill-rule:evenodd;stroke:#000000;stroke-width:1.0pt"
         transform="scale(0.8)" />
    </marker>
  </defs>
  <sodipodi:namedview
     id="base"
     pagecolor="#ffffff"
     bordercolor="#666666"
     borderopacity="1.0"
     inkscape:pageopacity="0.0"
     inkscape:pageshadow="2"
     inkscape:zoom="1.4142136"
     inkscape:cx="69.658153"
     inkscape:cy="74.519224"
     inkscape:document-units="px"
     inkscape:current-layer="layer1"
     showgrid="true"
     inkscape:window-width="1024"
     inkscape:window-height="543"
     inkscape:window-x="0"
     inkscape:window-y="0"
     inkscape:window-maximized="1">
    <inkscape:grid
       type="xygrid"
       id="grid2985"
       empspacing="2"
       visible="true"
       enabled="true"
       snapvisiblegridlinesonly="true" />
  </sodipodi:namedview>
  <metadata
     id="metadata7">
    <rdf:RDF>
      <cc:Work
         rdf:about="">
        <dc:format>image/svg+xml</dc:format>
        <dc:type
           rdf:resource="http://purl.org/dc/dcmitype/StillImage" />
        <dc:title></dc:title>
      </cc:Work>
    </rdf:RDF>
  </metadata>
  <g
     inkscape:label="Layer 1"
     inkscape:groupmode="layer"
     id="layer1"
     transform="translate(0,-924.36218)">
    <g
       id="g6659"
       transform="translate(-74.418919,-51.675662)"
       style="fill:#000000;fill-opacity:1;stroke:#000000;stroke-width:8;stroke-miterlimit:4;stroke-opacity:1;stroke-dasharray:none">
      <rect
         ry="4.3243241"
         rx="3.8253636"
         y="1005.7676"
         x="79.5"
         height="60.540535"
         width="99.459457"
         id="rect6341-8"
         style="fill:#000000;fill-opacity:1;stroke:#000000;stroke-width:8;stroke-miterlimit:4;stroke-opacity:1;stroke-dasharray:none" />
      <path
         sodipodi:nodetypes="czzzccc"
         inkscape:connector-curvature="0"
         id="path6343-3"
         d="m 170.31081,1005.7676 c 0,0 4.32432,0 8.64865,0 4.32432,0 12.97297,17.2973 17.2973,25.9459 4.32432,8.6487 4.32432,17.2973 0,25.946 -4.32433,8.6486 -8.64865,8.6486 -8.64865,8.6486 l -17.2973,0 z"
         style="fill:#000000;fill-opacity:1;stroke:#000000;stroke-width:8;stroke-miterlimit:4;stroke-opacity:1;stroke-dasharray:none" />
      <path
         sodipodi:nodetypes="cczccc"
         inkscape:connector-curvature="0"
         id="path6343-4-0"
         d="m 183.28378,1053.3352 c 21.62163,0 -12.97297,0 8.64865,0 4.32433,0 8.64865,-4.3244 4.32433,4.3243 -4.32433,8.6486 -8.64865,8.6486 -8.64865,8.6486 l -4.32433,0 z"
         style="fill:#000000;fill-opacity:1;stroke:#000000;stroke-width:8;stroke-miterlimit:4;stroke-opacity:1;stroke-dasharray:none" />
      <path
         sodipodi:nodetypes="ccczcczc"
         inkscape:connector-curvature="0"
         id="path6363-8"
         d="m 178.95946,1010.0919 -21.62162,0 0,17.2973 c 0,0 24.86486,0 25.94594,0 1.08108,0 4.32433,4.3243 4.32433,4.3243 l 6.48648,0 c 0,0 -1.08108,-3.2432 -6.48648,-12.9729 -5.40541,-9.7298 -8.64865,-8.6487 -8.64865,-8.6487 z"
         style="fill:#000000;fill-opacity:1;stroke:#000000;stroke-width:8;stroke-linecap:butt;stroke-linejoin:miter;stroke-miterlimit:4;stroke-opacity:1;stroke-dasharray:none" />
      <rect
         ry="1.8127315"
         rx="2.1621621"
         y="1046.8486"
         x="183.28378"
         height="6.4864841"
         width="8.6486483"
         id="rect6365-4"
         style="fill:#000000;fill-opacity:1;stroke:#000000;stroke-width:8;stroke-miterlimit:4;stroke-opacity:1;stroke-dasharray:none" />
      <rect
         ry="1.8127315"
         rx="1.5981947"
         y="1046.8486"
         x="191.93243"
         height="6.4864864"
         width="6.4864864"
         id="rect6367-3"
         style="fill:#000000;fill-opacity:1;stroke:#000000;stroke-width:8;stroke-miterlimit:4;stroke-opacity:1;stroke-dasharray:none" />
      <rect
         ry="1.8127315"
         rx="1.5981947"
         y="1053.3351"
         x="79.5"
         height="12.972973"
         width="4.3243241"
         id="rect6369-1"
         style="fill:#000000;fill-opacity:1;stroke:#000000;stroke-width:8;stroke-miterlimit:4;stroke-opacity:1;stroke-dasharray:none" />
      <rect
         ry="1.8127315"
         rx="1.5981947"
         y="1040.3622"
         x="79.5"
         height="12.972973"
         width="4.3243241"
         id="rect6371-6"
         style="fill:#000000;fill-opacity:1;stroke:#000000;stroke-width:8;stroke-miterlimit:4;stroke-opacity:1;stroke-dasharray:none" />
      <rect
         ry="1.8127315"
         rx="1.5981947"
         y="1027.3892"
         x="183.28378"
         height="8.6486483"
         width="8.6486483"
         id="rect6373-8"
         style="fill:#000000;fill-opacity:1;stroke:#000000;stroke-width:8;stroke-miterlimit:4;stroke-opacity:1;stroke-dasharray:none" />
      <rect
         ry="1.8127315"
         rx="1.5981947"
         y="1010.0919"
         x="118.41891"
         height="51.891891"
         width="34.594593"
         id="rect6375-2"
         style="fill:#000000;fill-opacity:1;stroke:#000000;stroke-width:8;stroke-miterlimit:4;stroke-opacity:1;stroke-dasharray:none" />
      <rect
         ry="1.0155025"
         rx="1.081081"
         y="1036.0378"
         x="88.148651"
         height="2.1621621"
         width="30.270269"
         id="rect6377-6"
         style="fill:#000000;fill-opacity:1;stroke:#000000;stroke-width:8;stroke-miterlimit:4;stroke-opacity:1;stroke-dasharray:none" />
      <rect
         ry="1.0155025"
         rx="1.081081"
         y="1038.2"
         x="146.52702"
         height="6.4864864"
         width="2.1621621"
         id="rect6379-7"
         style="fill:#000000;fill-opacity:1;stroke:#000000;stroke-width:8;stroke-miterlimit:4;stroke-opacity:1;stroke-dasharray:none" />
      <path
         sodipodi:nodetypes="ccc"
         inkscape:connector-curvature="0"
         id="path6381-6"
         d="m 157.33784,1027.3892 0,17.2973 10.81081,17.2973"
         style="fill:#000000;fill-opacity:1;stroke:#000000;stroke-width:8;stroke-linecap:butt;stroke-linejoin:miter;stroke-miterlimit:4;stroke-opacity:1;stroke-dasharray:none" />
      <rect
         ry="1.0155025"
         rx="1.081081"
         y="1033.8756"
         x="159.5"
         height="2.1621621"
         width="6.4864864"
         id="rect6383-4"
         style="fill:#000000;fill-opacity:1;stroke:#000000;stroke-width:8;stroke-miterlimit:4;stroke-opacity:1;stroke-dasharray:none" />
      <path
         transform="matrix(1.0810811,0,0,1.0810811,70.851351,971.17299)"
         d="m 40,86 c 0,5.522847 -4.477153,10 -10,10 -5.522847,0 -10,-4.477153 -10,-10 0,-5.522847 4.477153,-10 10,-10 5.522847,0 10,4.477153 10,10 z"
         sodipodi:ry="10"
         sodipodi:rx="10"
         sodipodi:cy="86"
         sodipodi:cx="30"
         id="path6387-6"
         style="fill:#000000;fill-opacity:1;stroke:#000000;stroke-width:7.4000001;stroke-miterlimit:4;stroke-opacity:1;stroke-dasharray:none"
         sodipodi:type="arc" />
      <path
         transform="matrix(1.0810811,0,0,1.0810811,70.851351,971.17299)"
         d="m 36,86 c 0,3.313708 -2.686292,6 -6,6 -3.313708,0 -6,-2.686292 -6,-6 0,-3.313708 2.686292,-6 6,-6 3.313708,0 6,2.686292 6,6 z"
         sodipodi:ry="6"
         sodipodi:rx="6"
         sodipodi:cy="86"
         sodipodi:cx="30"
         id="path6389-23"
         style="fill:#000000;fill-opacity:1;stroke:#000000;stroke-width:7.4000001;stroke-miterlimit:4;stroke-opacity:1;stroke-dasharray:none"
         sodipodi:type="arc" />
      <path
         d="m 40,86 c 0,5.522847 -4.477153,10 -10,10 -5.522847,0 -10,-4.477153 -10,-10 0,-5.522847 4.477153,-10 10,-10 5.522847,0 10,4.477153 10,10 z"
         sodipodi:ry="10"
         sodipodi:rx="10"
         sodipodi:cy="86"
         sodipodi:cx="30"
         id="path6387-1-2"
         style="fill:#000000;fill-opacity:1;stroke:#000000;stroke-width:7.4000001;stroke-miterlimit:4;stroke-opacity:1;stroke-dasharray:none"
         sodipodi:type="arc"
         transform="matrix(1.0810811,0,0,1.0810811,140.04054,971.17299)" />
      <path
         d="m 36,86 c 0,3.313708 -2.686292,6 -6,6 -3.313708,0 -6,-2.686292 -6,-6 0,-3.313708 2.686292,-6 6,-6 3.313708,0 6,2.686292 6,6 z"
         sodipodi:ry="6"
         sodipodi:rx="6"
         sodipodi:cy="86"
         sodipodi:cx="30"
         id="path6389-2-1"
         style="fill:#000000;fill-opacity:1;stroke:#000000;stroke-width:7.4000001;stroke-miterlimit:4;stroke-opacity:1;stroke-dasharray:none"
         sodipodi:type="arc"
         transform="matrix(1.0810811,0,0,1.0810811,140.04054,971.17299)" />
    </g>
    <rect
       style="fill:#ffffff;fill-opacity:1;stroke:none"
       id="rect6341"
       width="99.459457"
       height="60.540535"
       x="5.0810814"
       y="954.09192"
       rx="3.8253636"
       ry="4.3243241" />
    <path
       style="fill:#ffffff;fill-opacity:1;stroke:none"
       d="m 95.891892,954.09193 c 0,0 4.324328,0 8.648648,0 4.32432,0 12.97297,17.29729 17.2973,25.94594 4.32432,8.64865 4.32432,17.2973 0,25.94593 -4.32433,8.6486 -8.64865,8.6486 -8.64865,8.6486 l -17.297298,0 z"
       id="path6343"
       inkscape:connector-curvature="0"
       sodipodi:nodetypes="czzzccc" />
    <path
       style="fill:#4d4d4d;fill-opacity:1;stroke:none"
       d="m 108.86486,1001.6595 c 21.62163,0 -12.972968,0 8.64865,0 4.32433,0 8.64865,-4.32433 4.32433,4.3243 -4.32433,8.6486 -8.64865,8.6486 -8.64865,8.6486 l -4.32433,0 z"
       id="path6343-4"
       inkscape:connector-curvature="0"
       sodipodi:nodetypes="cczccc" />
    <path
       style="fill:#a4becf;fill-opacity:1;stroke:#393939;stroke-width:1.08108103px;stroke-linecap:butt;stroke-linejoin:miter;stroke-opacity:1"
       d="m 104.54054,958.41625 -21.621621,0 0,17.2973 c 0,0 24.864861,0 25.945941,0 1.08108,0 4.32433,4.32432 4.32433,4.32432 l 6.48648,0 c 0,0 -1.08108,-3.24324 -6.48648,-12.97297 -5.40541,-9.72973 -8.64865,-8.64865 -8.64865,-8.64865 z"
       id="path6363"
       inkscape:connector-curvature="0"
       sodipodi:nodetypes="ccczcczc" />
    <rect
       style="fill:#ff6600;fill-opacity:1;stroke:none"
       id="rect6365"
       width="8.6486483"
       height="6.4864841"
       x="108.86487"
       y="995.17303"
       rx="2.1621621"
       ry="1.8127315" />
    <rect
       style="fill:#ffff00;fill-opacity:1;stroke:none"
       id="rect6367"
       width="6.4864864"
       height="6.4864864"
       x="117.5135"
       y="995.17303"
       rx="1.5981947"
       ry="1.8127315" />
    <rect
       style="fill:#4d4d4d;fill-opacity:1;stroke:none"
       id="rect6369"
       width="4.3243241"
       height="12.972973"
       x="5.0810814"
       y="1001.6594"
       rx="1.5981947"
       ry="1.8127315" />
    <rect
       style="fill:#ff0000;fill-opacity:1;stroke:none"
       id="rect6371"
       width="4.3243241"
       height="12.972973"
       x="5.0810814"
       y="988.68652"
       rx="1.5981947"
       ry="1.8127315" />
    <rect
       style="fill:#1a1a1a;fill-opacity:1;stroke:none"
       id="rect6373"
       width="8.6486483"
       height="8.6486483"
       x="108.86487"
       y="975.71356"
       rx="1.5981947"
       ry="1.8127315" />
    <rect
       style="fill:#ffffff;fill-opacity:1;stroke:#393939;stroke-width:1.08108103;stroke-opacity:1"
       id="rect6375"
       width="34.594593"
       height="51.891891"
       x="44"
       y="958.41626"
       rx="1.5981947"
       ry="1.8127315" />
    <rect
       style="fill:#333333;fill-opacity:1;stroke:none"
       id="rect6377"
       width="30.270269"
       height="2.1621621"
       x="13.72973"
       y="984.36218"
       rx="1.081081"
       ry="1.0155025" />
    <rect
       style="fill:#333333;fill-opacity:1;stroke:none"
       id="rect6379"
       width="2.1621621"
       height="6.4864864"
       x="72.108109"
       y="986.52435"
       rx="1.081081"
       ry="1.0155025" />
    <path
       style="fill:none;stroke:#333333;stroke-width:1.08108103px;stroke-linecap:butt;stroke-linejoin:miter;stroke-opacity:1"
       d="m 82.918919,975.71355 0,17.29729 10.810811,17.29726"
       id="path6381"
       inkscape:connector-curvature="0"
       sodipodi:nodetypes="ccc" />
    <rect
       style="fill:#333333;fill-opacity:1;stroke:none"
       id="rect6383"
       width="6.4864864"
       height="2.1621621"
       x="85.081085"
       y="982.20001"
       rx="1.081081"
       ry="1.0155025" />
    <path
       sodipodi:type="arc"
       style="fill:#1a1a1a;fill-opacity:1;stroke:none"
       id="path6387"
       sodipodi:cx="30"
       sodipodi:cy="86"
       sodipodi:rx="10"
       sodipodi:ry="10"
       d="m 40,86 a 10,10 0 1 1 -20,0 10,10 0 1 1 20,0 z"
       transform="matrix(1.0810811,0,0,1.0810811,-3.5675672,919.49733)" />
    <path
       sodipodi:type="arc"
       style="fill:#808080;fill-opacity:1;stroke:none"
       id="path6389"
       sodipodi:cx="30"
       sodipodi:cy="86"
       sodipodi:rx="6"
       sodipodi:ry="6"
       d="m 36,86 a 6,6 0 1 1 -12,0 6,6 0 1 1 12,0 z"
       transform="matrix(1.0810811,0,0,1.0810811,-3.5675672,919.49733)" />
    <path
       transform="matrix(1.0810811,0,0,1.0810811,65.621622,919.49733)"
       sodipodi:type="arc"
       style="fill:#1a1a1a;fill-opacity:1;stroke:none"
       id="path6387-1"
       sodipodi:cx="30"
       sodipodi:cy="86"
       sodipodi:rx="10"
       sodipodi:ry="10"
       d="m 40,86 a 10,10 0 1 1 -20,0 10,10 0 1 1 20,0 z" />
    <path
       transform="matrix(1.0810811,0,0,1.0810811,65.621622,919.49733)"
       sodipodi:type="arc"
       style="fill:#808080;fill-opacity:1;stroke:none"
       id="path6389-2"
       sodipodi:cx="30"
       sodipodi:cy="86"
       sodipodi:rx="6"
       sodipodi:ry="6"
       d="m 36,86 a 6,6 0 1 1 -12,0 6,6 0 1 1 12,0 z" />
  </g>
</svg>
