<?xml version="1.0" encoding="UTF-8" standalone="no"?>
<!-- Created with Inkscape (http://www.inkscape.org/) -->

<svg
   xmlns:dc="http://purl.org/dc/elements/1.1/"
   xmlns:cc="http://creativecommons.org/ns#"
   xmlns:rdf="http://www.w3.org/1999/02/22-rdf-syntax-ns#"
   xmlns:svg="http://www.w3.org/2000/svg"
   xmlns="http://www.w3.org/2000/svg"
   xmlns:sodipodi="http://sodipodi.sourceforge.net/DTD/sodipodi-0.dtd"
   xmlns:inkscape="http://www.inkscape.org/namespaces/inkscape"
   width="128"
   height="160"
   id="svg2"
   version="1.1"
   inkscape:version="0.48.3.1 r9886"
   sodipodi:docname="maple.svg">
  <defs
     id="defs4" />
  <sodipodi:namedview
     id="base"
     pagecolor="#ffffff"
     bordercolor="#666666"
     borderopacity="1.0"
     inkscape:pageopacity="0.0"
     inkscape:pageshadow="2"
     inkscape:zoom="1.979899"
     inkscape:cx="62.570222"
     inkscape:cy="57.21118"
     inkscape:document-units="px"
     inkscape:current-layer="layer1"
     showgrid="true"
     inkscape:window-width="1024"
     inkscape:window-height="576"
     inkscape:window-x="0"
     inkscape:window-y="0"
     inkscape:window-maximized="1">
    <inkscape:grid
       type="xygrid"
       id="grid3775"
       empspacing="4"
       visible="true"
       enabled="true"
       snapvisiblegridlinesonly="true" />
  </sodipodi:namedview>
  <metadata
     id="metadata7">
    <rdf:RDF>
      <cc:Work
         rdf:about="">
        <dc:format>image/svg+xml</dc:format>
        <dc:type
           rdf:resource="http://purl.org/dc/dcmitype/StillImage" />
        <dc:title />
      </cc:Work>
    </rdf:RDF>
  </metadata>
  <g
     inkscape:label="Ebene 1"
     inkscape:groupmode="layer"
     id="layer1"
     transform="translate(0,-892.36218)">
    <path
       style="color:#000000;fill:#4e9a06;stroke:#000000;stroke-width:2;stroke-linejoin:round;stroke-miterlimit:4;stroke-opacity:1;stroke-dasharray:none;marker:none;visibility:visible;display:inline;overflow:visible;enable-background:accumulate;stroke-linecap:round"
       d="m 32,1012.3622 0,-4 c 14.57538,-8.025 20.674359,-0.1392 20,4 l 0,4 c -5.3295,-12.3917 -14.895,-7.1046 -20,-4 z"
       id="rect3792-1"
       inkscape:connector-curvature="0"
       sodipodi:nodetypes="ccccc" />
    <path
       style="color:#000000;fill:#4e9a06;stroke:#000000;stroke-width:2;stroke-linejoin:round;stroke-miterlimit:4;stroke-opacity:1;stroke-dasharray:none;marker:none;visibility:visible;display:inline;overflow:visible;enable-background:accumulate;stroke-linecap:round"
       d="m 61.72038,984.36218 2.27962,0 c 10.730588,34.72502 -27.100681,37.44492 -40,56.00002 l -2.27962,-4 c 15.782173,-19.1955 47.467236,-24.6927 40,-52.00002 z"
       id="rect3792"
       inkscape:connector-curvature="0"
       sodipodi:nodetypes="ccccc" />
    <path
       style="fill:#4e9a06;stroke:#000000;stroke-width:2;stroke-linecap:round;stroke-linejoin:round;stroke-miterlimit:4;stroke-opacity:1;stroke-dasharray:none"
       d="M 63.96875 0.46875 C 60.797767 8.7448 61.603567 9.50631 61.78125 11.4375 C 60.681261 10.892 59.955998 10.16436 59.59375 9.25 C 57.925832 12.97935 57.174532 15.20001 57.40625 15.8125 C 55.266708 15.76104 54.311708 14.53554 53.03125 13.625 C 52.028324 18.09629 52.005421 21.03905 53.03125 22.375 C 52.300909 22.02639 51.574081 21.4528 50.84375 20.1875 C 50.606804 23.17653 49.884153 26.32159 50.84375 28.96875 C 46.500771 27.83591 44.707953 23.878 39.875 22.375 C 40.763292 26.02766 38.526157 30.23334 39.875 33.34375 C 39.197743 33.66219 38.542758 34.09331 37.6875 33.34375 C 40.359679 36.33089 39.557086 40.61334 42.0625 42.125 C 41.389963 42.41401 40.726951 42.73308 39.875 42.125 C 42.343603 48.61713 46.276658 49.66137 44.25 55.25 C 42.041458 52.46026 39.568875 51.74355 37.6875 46.5 L 37.6875 48.6875 C 34.263444 47.60282 32.681119 42.4896 28.9375 39.90625 C 29.931065 46.18251 28.660411 45.16543 28.9375 46.5 C 27.399977 40.94559 19.277512 42.78928 15.78125 37.71875 C 15.389905 39.66859 15.435428 41.09663 15.78125 42.125 C 11.336815 39.32855 5.5498245 39.17942 0.4375 37.71875 C 3.3437975 39.98491 5.9847009 43.68511 9.21875 44.3125 C 8.295309 44.69872 7.5547418 44.66369 7 44.3125 C 8.460667 47.59017 9.9455728 51.81589 11.40625 53.0625 C 9.9455728 52.60234 8.460667 52.42244 7 53.0625 C 8.4238112 55.41938 9.6524195 58.75324 11.40625 59.625 C 10.783481 59.7056 10.514015 60.04868 9.21875 59.625 C 11.341159 62.50181 13.4768 65.16215 15.78125 66.21875 C 12.987959 66.05276 9.9697595 67.33696 7 68.40625 C 9.3030796 70.59724 9.2963919 72.77776 15.78125 74.96875 C 15.716437 76.23154 14.526282 76.58774 13.59375 77.15625 C 16.548564 77.72909 18.676545 77.68969 20.15625 77.15625 C 19.068888 77.88661 18.143304 78.61349 17.96875 79.34375 C 21.42721 81.25517 24.935667 83.10641 28.9375 83.75 C 22.573892 88.31057 13.398876 88.21125 9.21875 92.5 C 15.043358 93.99671 20.231282 96.70397 26.71875 96.875 C 26.938757 97.42929 27.373175 97.80857 26.71875 99.0625 C 31.200777 99.31253 36.062485 100.48614 39.875 99.0625 C 37.972318 100.2887 37.78063 101.88063 37.6875 103.46875 C 40.628294 102.80651 43.823691 103.08806 46.4375 101.28125 C 46.237364 102.21176 46.269342 102.90649 46.4375 103.46875 C 52.73985 100.90093 59.896463 98.97062 63.96875 94.6875 C 68.041037 98.97062 75.19765 100.90093 81.5 103.46875 C 81.668158 102.90649 81.700136 102.21176 81.5 101.28125 C 84.113809 103.08806 87.340456 102.80651 90.28125 103.46875 C 90.18812 101.88063 89.996432 100.2887 88.09375 99.0625 C 91.906265 100.48614 96.736725 99.31253 101.21875 99.0625 C 100.56433 97.80857 100.99875 97.42929 101.21875 96.875 C 107.70622 96.70397 112.92539 93.99671 118.75 92.5 C 114.56987 88.21125 105.39486 88.31057 99.03125 83.75 C 103.03308 83.10641 106.54154 81.25517 110 79.34375 C 109.82545 78.61349 108.89987 77.88661 107.8125 77.15625 C 109.29221 77.68969 111.42019 77.72909 114.375 77.15625 C 113.44247 76.58774 112.25232 76.23154 112.1875 74.96875 C 118.67236 72.77776 118.63442 70.59724 120.9375 68.40625 C 117.96774 67.33696 114.9808 66.05276 112.1875 66.21875 C 114.49195 65.16215 116.62759 62.50181 118.75 59.625 C 117.45473 60.04868 117.18526 59.7056 116.5625 59.625 C 118.31633 58.75324 119.51368 55.41938 120.9375 53.0625 C 119.47683 52.42244 118.02317 52.60234 116.5625 53.0625 C 118.02317 51.81589 119.47683 47.59017 120.9375 44.3125 C 120.38275 44.66369 119.67344 44.69872 118.75 44.3125 C 121.98404 43.68511 124.62495 39.98491 127.53125 37.71875 C 122.41892 39.17942 116.63194 39.32855 112.1875 42.125 C 112.53333 41.09663 112.57885 39.66859 112.1875 37.71875 C 108.69124 42.78928 100.56877 40.94559 99.03125 46.5 C 99.308339 45.16543 98.037685 46.18251 99.03125 39.90625 C 95.287631 42.4896 93.705306 47.60282 90.28125 48.6875 L 90.28125 46.5 C 88.399875 51.74355 85.896042 52.46026 83.6875 55.25 C 81.660842 49.66137 85.625147 48.61713 88.09375 42.125 C 87.241799 42.73308 86.547537 42.41401 85.875 42.125 C 88.380414 40.61334 87.609071 36.33089 90.28125 33.34375 C 89.425992 34.09331 88.771007 33.66219 88.09375 33.34375 C 89.442593 30.23334 87.205458 26.02766 88.09375 22.375 C 83.260797 23.878 81.467979 27.83591 77.125 28.96875 C 78.084597 26.32159 77.361946 23.17653 77.125 20.1875 C 76.394669 21.4528 75.667841 22.02639 74.9375 22.375 C 75.963329 21.03905 75.940426 18.09629 74.9375 13.625 C 73.657042 14.53554 72.702042 15.76104 70.5625 15.8125 C 70.794218 15.20001 70.042918 12.97935 68.375 9.25 C 68.012752 10.16436 67.256239 10.892 66.15625 11.4375 C 66.333933 9.50631 67.139733 8.7448 63.96875 0.46875 z "
       transform="translate(0,892.36218)"
       id="path3788" />
    <path
       style="fill:none;stroke:#000000;stroke-width:2;stroke-linecap:round;stroke-linejoin:round;stroke-miterlimit:4;stroke-opacity:1;stroke-dasharray:none"
       d="m 66.17152,984.86466 c 1.237698,-2.66526 33.022472,-28.87259 52.58393,-50.39298"
       id="path3799"
       inkscape:connector-curvature="0"
       sodipodi:nodetypes="cc"
       inkscape:transform-center-x="-28.262088"
       inkscape:transform-center-y="-50.780819" />
    <path
       style="fill:none;stroke:#000000;stroke-width:2;stroke-linecap:round;stroke-linejoin:round;stroke-miterlimit:4;stroke-opacity:1;stroke-dasharray:none"
       d="m 65.076019,923.51671 c 4.052106,-2.22171 6.211783,-6.71431 7.668494,-12.0505"
       id="path3803"
       inkscape:connector-curvature="0"
       sodipodi:nodetypes="cc"
       inkscape:transform-center-x="-4.8915179"
       inkscape:transform-center-y="-92.630449" />
    <path
       style="fill:none;stroke:#000000;stroke-width:2;stroke-linecap:round;stroke-linejoin:round;stroke-miterlimit:4;stroke-opacity:1;stroke-dasharray:none"
       d="m 85.890489,921.3257 c -8.130208,10.68585 -12.542966,24.82848 -20.81447,32.865"
       id="path3807"
       inkscape:connector-curvature="0"
       sodipodi:nodetypes="cc"
       inkscape:transform-center-x="-11.413535"
       inkscape:transform-center-y="-72.520889" />
    <path
       style="fill:none;stroke:#000000;stroke-width:2;stroke-linecap:round;stroke-linejoin:round;stroke-miterlimit:4;stroke-opacity:1;stroke-dasharray:none"
       d="m 66.17152,987.05565 c 14.012998,-5.66321 30.32827,-1.41396 48.20193,-2.19099"
       id="path3813"
       inkscape:connector-curvature="0"
       sodipodi:nodetypes="cc"
       inkscape:transform-center-x="-26.088083"
       inkscape:transform-center-y="-25.092576" />
    <path
       style="fill:none;stroke:#000000;stroke-width:2;stroke-linecap:round;stroke-linejoin:round;stroke-miterlimit:4;stroke-opacity:1;stroke-dasharray:none"
       d="M 61.789519,984.86466 C 60.551821,982.1994 28.767047,955.99207 9.2055934,934.47168"
       id="path3799-6"
       inkscape:connector-curvature="0"
       sodipodi:nodetypes="cc"
       inkscape:transform-center-x="-28.262088"
       inkscape:transform-center-y="-50.780819" />
    <path
       style="fill:none;stroke:#000000;stroke-width:2;stroke-linecap:round;stroke-linejoin:round;stroke-miterlimit:4;stroke-opacity:1;stroke-dasharray:none"
       d="M 62.88502,923.51671 C 58.832914,921.295 56.673237,916.8024 55.216526,911.46621"
       id="path3803-9"
       inkscape:connector-curvature="0"
       sodipodi:nodetypes="cc"
       inkscape:transform-center-x="-4.8915179"
       inkscape:transform-center-y="-92.630449" />
    <path
       style="fill:none;stroke:#000000;stroke-width:2;stroke-linecap:round;stroke-linejoin:round;stroke-miterlimit:4;stroke-opacity:1;stroke-dasharray:none"
       d="m 42.07055,921.3257 c 8.130208,10.68585 12.542966,24.82848 20.81447,32.865"
       id="path3807-2"
       inkscape:connector-curvature="0"
       sodipodi:nodetypes="cc"
       inkscape:transform-center-x="-11.413535"
       inkscape:transform-center-y="-72.520889" />
    <path
       style="fill:none;stroke:#000000;stroke-width:2;stroke-linecap:round;stroke-linejoin:round;stroke-miterlimit:4;stroke-opacity:1;stroke-dasharray:none"
       d="m 61.789519,987.05565 c -14.012998,-5.66321 -30.32827,-1.41396 -48.201935,-2.19099"
       id="path3813-3"
       inkscape:connector-curvature="0"
       sodipodi:nodetypes="cc"
       inkscape:transform-center-x="-26.088083"
       inkscape:transform-center-y="-25.092576" />
    <path
       style="fill:none;stroke:#000000;stroke-width:2;stroke-linecap:round;stroke-linejoin:miter;stroke-opacity:1;stroke-miterlimit:4;stroke-dasharray:none"
       d="m 64,88 0,-72 0,76"
       id="path3941"
       inkscape:connector-curvature="0"
       transform="translate(0,892.36218)" />
    <path
       style="fill:#000000;stroke:none;stroke-width:2;stroke-linecap:round;stroke-linejoin:round;stroke-miterlimit:4;stroke-opacity:1;stroke-dasharray:none;fill-opacity:1;opacity:0.25000000000000000"
       d="M 63.96875 0.46875 C 60.797767 8.7448 61.603567 9.50631 61.78125 11.4375 C 60.681261 10.892 59.955998 10.16436 59.59375 9.25 C 57.925832 12.97935 57.174532 15.20001 57.40625 15.8125 C 55.266708 15.761 54.311708 14.53554 53.03125 13.625 C 52.028324 18.09629 52.005421 21.03905 53.03125 22.375 C 52.300909 22.02639 51.574081 21.4528 50.84375 20.1875 C 50.606804 23.17653 49.884153 26.32159 50.84375 28.96875 C 46.500771 27.83591 44.707953 23.878 39.875 22.375 C 40.763292 26.02766 38.526157 30.23334 39.875 33.34375 C 39.197743 33.66219 38.542758 34.09331 37.6875 33.34375 C 40.359679 36.33089 39.557086 40.61334 42.0625 42.125 C 41.389963 42.41401 40.726951 42.73308 39.875 42.125 C 42.343603 48.61713 46.276658 49.66137 44.25 55.25 C 42.041458 52.46026 39.568875 51.74355 37.6875 46.5 L 37.6875 48.6875 C 34.263444 47.60282 32.681119 42.4896 28.9375 39.90625 C 29.931065 46.18251 28.660411 45.16543 28.9375 46.5 C 27.399977 40.94559 19.277512 42.78928 15.78125 37.71875 C 15.389905 39.66859 15.435428 41.09663 15.78125 42.125 C 11.336815 39.32855 5.5498244 39.17942 0.4375 37.71875 C 3.3437974 39.98491 5.9847009 43.68511 9.21875 44.3125 C 8.295309 44.69872 7.5547418 44.66369 7 44.3125 C 8.460667 47.59017 9.9455727 51.81589 11.40625 53.0625 C 9.9455727 52.60234 8.460667 52.42244 7 53.0625 C 8.4238112 55.41938 9.6524194 58.75324 11.40625 59.625 C 10.783481 59.7056 10.514015 60.04868 9.21875 59.625 C 11.341159 62.50181 13.4768 65.16215 15.78125 66.21875 C 12.987959 66.05276 9.9697593 67.33696 7 68.40625 C 9.3030796 70.59724 9.2963918 72.77776 15.78125 74.96875 C 15.71644 76.23154 14.526282 76.58774 13.59375 77.15625 C 16.548564 77.72909 18.676545 77.68969 20.15625 77.15625 C 19.068888 77.88661 18.143304 78.61349 17.96875 79.34375 C 21.42721 81.25517 24.935667 83.10641 28.9375 83.75 C 22.573892 88.31057 13.398876 88.21125 9.21875 92.5 C 15.043358 93.99671 20.231282 96.70397 26.71875 96.875 C 26.938757 97.42929 27.373175 97.80857 26.71875 99.0625 C 31.200777 99.31253 36.062485 100.48614 39.875 99.0625 C 37.972318 100.2887 37.78063 101.88063 37.6875 103.46875 C 40.628294 102.80651 43.823691 103.08806 46.4375 101.28125 C 46.237364 102.21176 46.269342 102.90649 46.4375 103.46875 C 52.73985 100.90093 59.896463 98.97062 63.96875 94.6875 C 63.978727 94.697994 63.989986 94.708284 64 94.71875 L 64 0.5625 C 63.986889 0.52818183 63.981999 0.50332992 63.96875 0.46875 z "
       transform="translate(0,892.36218)"
       id="path3788-3" />
    <path
       style="fill:#4e9a06;stroke:#000000;stroke-width:2;stroke-linecap:round;stroke-linejoin:round;stroke-miterlimit:4;stroke-opacity:1;stroke-dasharray:none"
       d="m 13.303391,1014.0217 c 0.87639,0.3346 2.209615,-0.2253 2.592696,0.6322 0.814274,-0.1061 1.26526,0.597 0.974017,1.1079 0.571508,0.1579 1.757361,-0.4526 1.573949,0.2043 0.566176,-0.2307 2.191335,-0.4319 1.311727,0.5966 -0.625744,0.6027 -0.742517,2.1399 0.480491,1.5263 0.572912,-0.3132 1.408205,-0.1567 1.498411,-0.045 0.933232,-0.8587 2.394404,-0.895 3.126739,-2.0116 0.770803,-0.5824 1.391607,0.2197 0.521604,0.7789 -0.934167,0.6194 -0.506818,1.6514 -1.553008,2.3214 -1.024491,1.1212 1.625621,-0.1791 0.553321,0.9936 -0.371055,0.7658 -0.579996,1.8386 -0.469388,2.6079 0.960846,-0.07 0.01578,1.6608 0.293977,2.3953 0.104959,1.8962 0.601672,-1.1242 1.560728,-1.1377 0.450996,-0.1461 1.389762,-1.3333 1.415545,-0.1712 1.074855,-0.5704 1.861452,-1.1269 2.549481,-2.0625 0.206586,0.59 0.854173,2.0232 1.394956,0.7317 0.335576,-0.4817 0.416511,-1.5818 1.023389,-1.1718 -0.09892,-0.5677 -0.335374,-1.385 0.344551,-1.0214 0.323006,-0.5361 0.08303,-2.9404 1.034941,-1.6985 0.719227,1.0305 1.093613,2.3303 2.123137,3.1219 0.185142,-1.6796 0.193555,-3.4065 0.597917,-5.0253 -0.21039,-0.7023 -0.741761,-1.9514 0.323585,-1.7475 0.06452,-0.8006 -0.708793,-1.5667 -0.477208,-2.2333 -0.521632,-1.4091 -2.862499,-2.4541 -1.937415,-4.0462 0.538073,-1.1879 0.510583,-2.5244 0.299193,-3.7373 0.312266,-0.9366 -0.675774,-1.1529 -0.926095,-0.9966 0.16032,-1.4504 -0.961479,-2.2649 -1.46259,-3.3678 -0.283756,-0.67988 -0.954027,-2.4247 -1.566038,-2.05388 -0.496523,1.30665 -0.05913,2.85688 -0.844972,4.05678 -0.275166,-0.8381 -1.053661,-1.9404 -1.759575,-1.8341 0.0026,-0.2979 -0.273692,-1.39843 -0.498803,-0.57 -0.500971,-0.56126 -2.155927,-2.19294 -2.108289,-0.48493 0.305404,1.73083 -1.089721,-0.41172 -1.618263,0.0784 0.239837,0.30983 -1.983816,-0.94409 -1.497475,0.33233 0.09856,0.2839 -1.4392,-0.53361 -1.997724,-0.1187 -0.232789,-0.55101 -2.110372,-1.73275 -1.26172,-0.38 0.453948,0.7966 1.164079,2.0103 0.623559,2.5285 0.514547,0.7135 1.702592,2.047 1.745031,2.373 -1.479818,0.1384 -0.156281,0.83 0.505013,1.0521 0.57552,0.073 0.6017,0.7924 0.610556,0.7437 0.870466,-0.182 2.270582,1.6054 0.646934,1.2246 -0.683941,-0.2529 -1.681318,-0.7455 -1.931945,-0.2094 -1.232931,-0.6538 -2.523573,0.1589 -3.716599,0.4279 -0.962199,0.8552 2.377656,1.5978 0.632718,2.3308 -0.714919,-0.1941 -0.937204,0.2923 -0.68935,0.6193 -0.723063,-0.3695 -2.077908,0.4565 -1.134312,1.153 -0.587852,0.1968 -1.172664,1.0298 -0.939937,1.2413 -0.735078,0.1113 -1.344234,0.5715 -1.966188,0.9425 z"
       id="path3788-8-6"
       inkscape:connector-curvature="0"
       inkscape:transform-center-x="16.466281"
       inkscape:transform-center-y="0.78110087" />
    <path
       style="color:#000000;fill:#4e9a06;stroke:#000000;stroke-width:2;stroke-linejoin:round;stroke-miterlimit:4;stroke-opacity:1;stroke-dasharray:none;marker:none;visibility:visible;display:inline;overflow:visible;enable-background:accumulate;stroke-linecap:round"
       d="m 72,1020.3622 0,-4 c -4,-4 -15,-7 -18,-5 l -2,5 c 4.500139,-5.4993 14.875264,-0.6237 20,4 z"
       id="rect3792-1-7"
       inkscape:connector-curvature="0"
       sodipodi:nodetypes="ccccc" />
    <path
       style="fill:#ce5c00;stroke:#000000;stroke-width:2;stroke-linecap:round;stroke-linejoin:round;stroke-miterlimit:4;stroke-opacity:1;stroke-dasharray:none"
       d="m 95.423253,1028.5919 c -0.667331,-1.1249 -2.608794,-1.669 -2.284108,-2.9375 -0.981628,-0.5893 -0.864509,-1.7488 -0.103611,-2.0544 -0.487426,-0.6677 -2.311823,-1.0287 -1.542099,-1.5873 -0.81825,-0.2392 -2.767604,-1.428 -0.915672,-1.7886 1.205813,-0.1158 2.665666,-1.6936 0.797994,-2.0834 -0.896959,-0.1554 -1.673827,-1.0496 -1.675516,-1.2498 -1.763646,0.1292 -3.391111,-1.0976 -5.158779,-0.5127 -1.346658,-0.032 -1.329575,-1.4461 0.105382,-1.3029 1.557205,0.1331 1.984807,-1.3644 3.708354,-1.1897 2.090712,-0.3366 -1.930921,-1.2132 0.256749,-1.5648 1.069013,-0.5148 2.227013,-1.5055 2.772993,-2.4417 -1.110303,-0.7561 1.422203,-1.8277 1.754926,-2.871 1.528855,-2.1622 -1.631488,0.7063 -2.690788,-0.1101 -0.619036,-0.2314 -2.673575,0.2518 -1.694721,-1.0395 -1.668231,-0.3092 -3.009952,-0.3824 -4.572264,0.043 0.285637,-0.8233 0.820515,-2.9501 -0.889575,-2.0081 -0.783992,0.2353 -1.825842,1.3667 -2.133356,0.3928 -0.384089,0.706 -0.834101,1.8035 -1.26165,0.8171 -0.817486,0.3057 -2.639205,3.1398 -2.602511,0.9582 0.107537,-1.7489 0.825157,-3.4931 0.386644,-5.2499 -1.657943,1.6741 -3.163798,3.5529 -5.008507,4.9706 -0.378886,0.9494 -0.881137,2.7744 -1.868041,1.6283 -0.764368,0.8186 -0.583705,2.3257 -1.414462,2.8531 -0.651471,1.9911 0.999771,5.1612 -1.390635,6.0986 -1.617273,0.8311 -2.745592,2.3147 -3.566007,3.8229 -1.15284,0.7523 -0.261076,1.8449 0.147811,1.8911 -1.432156,1.4452 -0.912803,3.3072 -1.321387,4.9462 -0.279342,0.9886 -1.059461,3.4753 -0.06958,3.6007 1.674843,-0.9969 2.540657,-3.0692 4.438992,-3.6987 -0.4258,1.1538 -0.530883,3.0326 0.332332,3.5283 -0.261044,0.3232 -0.913119,1.7647 0.05074,1.055 0.06077,1.0472 0.454233,4.2638 1.882557,2.3569 1.166567,-2.1552 0.833417,1.3942 1.835564,1.3169 0.0065,-0.5462 1.348607,2.7506 1.923666,0.9349 0.138397,-0.3955 1.109525,1.8302 2.07919,1.8611 -0.223305,0.8036 0.803303,3.7217 1.048792,1.5086 0.194554,-1.2635 0.470799,-3.2046 1.510359,-3.3022 0.05638,-1.2253 -0.08554,-3.7115 0.150674,-4.1044 1.736248,1.1315 0.890033,-0.7711 0.360231,-1.5868 -0.565499,-0.5784 0.02956,-1.387 -0.02232,-1.3415 -1.108749,-0.5553 -1.088714,-3.7214 0.354838,-1.8985 0.527759,0.8692 1.190219,2.2717 1.928642,1.9033 0.780052,1.7827 2.894128,2.0137 4.430354,2.7539 1.792249,-0.1002 -1.212178,-3.806 1.329143,-3.0944 0.612599,0.8317 1.277003,0.4931 1.289719,-0.079 0.469421,1.0305 2.665269,1.3024 2.238209,-0.2761 0.812738,0.2941 2.173448,-0.1085 2.102541,-0.5412 0.899263,0.5157 1.963385,0.5416 2.964395,0.675 z"
       id="path3788-8"
       inkscape:connector-curvature="0"
       inkscape:transform-center-x="-16.673917"
       inkscape:transform-center-y="13.378535" />
  </g>
</svg>
