<?xml version="1.0" encoding="UTF-8" standalone="no"?>
<!-- Created with Inkscape (http://www.inkscape.org/) -->

<svg
   xmlns:dc="http://purl.org/dc/elements/1.1/"
   xmlns:cc="http://creativecommons.org/ns#"
   xmlns:rdf="http://www.w3.org/1999/02/22-rdf-syntax-ns#"
   xmlns:svg="http://www.w3.org/2000/svg"
   xmlns="http://www.w3.org/2000/svg"
   xmlns:sodipodi="http://sodipodi.sourceforge.net/DTD/sodipodi-0.dtd"
   xmlns:inkscape="http://www.inkscape.org/namespaces/inkscape"
   width="210mm"
   height="297mm"
   viewBox="0 0 210 297"
   version="1.1"
   id="svg8"
   inkscape:version="0.92.3 (2405546, 2018-03-11)"
   sodipodi:docname="logo_open_card_games.svg">
  <defs
     id="defs2" />
  <sodipodi:namedview
     id="base"
     pagecolor="#ffffff"
     bordercolor="#666666"
     borderopacity="1.0"
     inkscape:pageopacity="0.0"
     inkscape:pageshadow="2"
     inkscape:zoom="0.9899495"
     inkscape:cx="578.12244"
     inkscape:cy="708.59187"
     inkscape:document-units="mm"
     inkscape:current-layer="layer1"
     showgrid="false"
     inkscape:snap-bbox="true"
     inkscape:object-paths="true"
     inkscape:snap-intersection-paths="true"
     inkscape:snap-smooth-nodes="true"
     inkscape:snap-object-midpoints="true"
     inkscape:window-width="1920"
     inkscape:window-height="1024"
     inkscape:window-x="0"
     inkscape:window-y="28"
     inkscape:window-maximized="1" />
  <metadata
     id="metadata5">
    <rdf:RDF>
      <cc:Work
         rdf:about="">
        <dc:format>image/svg+xml</dc:format>
        <dc:type
           rdf:resource="http://purl.org/dc/dcmitype/StillImage" />
        <dc:title />
      </cc:Work>
    </rdf:RDF>
  </metadata>
  <g
     inkscape:label="Ebene 1"
     inkscape:groupmode="layer"
     id="layer1">
    <path
       style="opacity:1;fill:#83cee4;fill-opacity:1;stroke:none;stroke-width:37.79527664;stroke-linecap:butt;stroke-linejoin:round;stroke-miterlimit:4;stroke-dasharray:none;stroke-dashoffset:0;stroke-opacity:1;paint-order:stroke fill markers"
       d="M 784.20117 268.23438 A 195.71427 195.71427 0 0 0 698.04688 288.48633 C 708.07295 295.54697 717.54096 303.49857 726.32227 312.29102 L 739.66797 325.65234 L 619.42969 445.89062 L 606.06641 432.51367 C 602.2416 428.68427 597.79039 425.63463 592.95898 423.44336 A 195.71427 195.71427 0 0 0 588.48633 463.94727 A 195.71427 195.71427 0 0 0 592.84766 504.50391 C 597.72225 502.30951 602.21254 499.24556 606.06641 495.38672 L 619.42969 482.00586 L 739.66602 602.24609 L 726.32031 615.60742 C 717.51215 624.42663 708.01518 632.39983 697.95508 639.47656 A 195.71427 195.71427 0 0 0 698.43359 639.71484 A 195.71427 195.71427 0 0 0 699.19531 640.05664 A 195.71427 195.71427 0 0 0 716.12695 647.30664 A 195.71427 195.71427 0 0 0 718.76367 648.18359 A 195.71427 195.71427 0 0 0 734.42383 653.10742 A 195.71427 195.71427 0 0 0 739.31055 654.20508 A 195.71427 195.71427 0 0 0 753.22852 657.09375 A 195.71427 195.71427 0 0 0 760.29492 657.95117 A 195.71427 195.71427 0 0 0 772.70703 659.25586 A 195.71427 195.71427 0 0 0 784.19336 659.66211 A 195.71427 195.71427 0 0 0 784.20312 659.66211 L 922.18359 659.66211 L 922.18359 463.94727 L 847.58789 463.94727 A 63.384277 63.384277 0 0 1 847.27148 470.27344 A 63.384277 63.384277 0 0 1 847.27148 470.27539 A 63.384277 63.384277 0 0 1 836.5332 499.70898 C 836.51431 499.73544 836.49546 499.76343 836.47656 499.79102 A 63.384277 63.384277 0 0 1 832.80469 504.62305 C 832.6879 504.76251 832.56519 504.89671 832.44727 505.03516 A 63.384277 63.384277 0 0 1 828.52539 509.24219 C 828.3863 509.37825 828.24381 509.50975 828.10352 509.64453 A 63.384277 63.384277 0 0 1 823.80273 513.42188 C 823.6508 513.54355 823.49659 513.66301 823.34375 513.7832 A 63.384277 63.384277 0 0 1 818.61133 517.16992 C 818.49983 517.24211 818.38726 517.31333 818.27539 517.38477 A 63.384277 63.384277 0 0 1 813.03906 520.38672 C 812.98426 520.41318 812.9298 520.44273 812.875 520.4707 A 63.384277 63.384277 0 0 1 807.18164 523.01953 A 63.384277 63.384277 0 0 1 807.16992 523.02344 C 807.16667 523.02472 807.16394 523.02621 807.16016 523.02734 A 63.384277 63.384277 0 0 1 801.19922 525.00781 C 801.17276 525.01537 801.14957 525.02174 801.125 525.0293 A 63.384277 63.384277 0 0 1 795.16016 526.36914 C 795.0479 526.38804 794.93647 526.40884 794.82422 526.42773 A 63.384277 63.384277 0 0 1 789.07031 527.12695 C 788.80197 527.14585 788.53484 527.17245 788.26562 527.18945 A 63.384277 63.384277 0 0 1 785.89844 527.27148 A 63.384281 63.384281 0 0 1 784.20117 527.33203 A 63.384277 63.384277 0 0 1 720.81641 463.94727 A 63.384277 63.384277 0 0 1 784.20117 400.56445 A 63.384277 63.384277 0 0 1 815.86523 409.10547 L 881.9375 294.66602 A 195.71427 195.71427 0 0 0 784.20312 268.23438 L 784.20117 268.23438 z M 662.68945 310.7832 A 195.71427 195.71427 0 0 0 604.34375 387.31836 C 609.02117 389.14928 613.53408 391.39513 617.82031 394.04492 L 685.4707 326.39453 C 678.26633 320.58063 670.64447 315.3711 662.68945 310.7832 z M 617.82227 533.84961 C 613.49944 536.52226 608.94451 538.78371 604.22461 540.62305 A 195.71427 195.71427 0 0 0 662.61328 617.1543 C 670.5956 612.55576 678.24366 607.33238 685.4707 601.5 L 617.82227 533.84961 z "
       transform="scale(0.26458333)"
       id="path846"
       inkscape:export-xdpi="29.58"
       inkscape:export-ydpi="29.58" />
    <path
       style="opacity:1;fill:#b3c952;fill-opacity:1;stroke:none;stroke-width:7.55905533;stroke-linecap:butt;stroke-linejoin:round;stroke-miterlimit:4;stroke-dasharray:none;stroke-dashoffset:0;stroke-opacity:1;paint-order:stroke fill markers"
       d="M 574.64648 268.23438 A 195.71427 195.71427 0 0 0 444.42969 318.10742 C 479.9767 356.42274 501.75351 407.68201 501.75391 463.92188 C 501.75407 520.16283 479.9775 571.42289 444.42969 609.73828 A 195.71427 195.71427 0 0 0 574.64648 659.66211 A 195.71427 195.71427 0 0 0 712.94922 602.25195 L 619.4375 508.73828 A 63.384283 63.384283 0 0 1 574.64648 527.33203 A 63.384283 63.384283 0 0 1 511.26172 463.94727 A 63.384283 63.384283 0 0 1 574.64648 400.56445 A 63.384283 63.384283 0 0 1 619.4375 419.15625 L 712.95117 325.64258 A 195.71427 195.71427 0 0 0 574.64648 268.23438 z M 418.84375 345.7793 A 195.71427 195.71427 0 0 0 378.93164 463.94727 A 195.71427 195.71427 0 0 0 418.87305 582.03125 C 446.92095 550.75298 463.95911 509.3831 463.95898 463.92188 C 463.95867 418.44448 446.90983 377.06165 418.84375 345.7793 z "
       transform="scale(0.26458333)"
       id="path816"
       inkscape:export-xdpi="29.58"
       inkscape:export-ydpi="29.58" />
    <path
       style="opacity:1;fill:#f4d269;fill-opacity:1;stroke:none;stroke-width:7.55905533;stroke-linecap:butt;stroke-linejoin:round;stroke-miterlimit:4;stroke-dasharray:none;stroke-dashoffset:0;stroke-opacity:1;paint-order:stroke fill markers"
       d="M 287.14258 268.23438 A 195.71427 195.71427 0 0 0 91.427734 463.94727 A 195.71427 195.71427 0 0 0 287.14258 659.66211 A 195.71427 195.71427 0 0 0 482.85742 463.94727 A 195.71427 195.71427 0 0 0 287.14258 268.23438 z M 287.14258 400.56445 A 63.384286 63.384286 0 0 1 350.52734 463.94727 A 63.384286 63.384286 0 0 1 287.14258 527.33203 A 63.384286 63.384286 0 0 1 223.75781 463.94727 A 63.384286 63.384286 0 0 1 287.14258 400.56445 z "
       transform="scale(0.26458333)"
       id="path815"
       inkscape:export-xdpi="29.58"
       inkscape:export-ydpi="29.58" />
  </g>
</svg>
