<?xml version="1.0" encoding="UTF-8" standalone="no"?>
<!-- Created with Inkscape (http://www.inkscape.org/) -->

<svg
   xmlns:dc="http://purl.org/dc/elements/1.1/"
   xmlns:cc="http://creativecommons.org/ns#"
   xmlns:rdf="http://www.w3.org/1999/02/22-rdf-syntax-ns#"
   xmlns:svg="http://www.w3.org/2000/svg"
   xmlns="http://www.w3.org/2000/svg"
   xmlns:xlink="http://www.w3.org/1999/xlink"
   xmlns:sodipodi="http://sodipodi.sourceforge.net/DTD/sodipodi-0.dtd"
   xmlns:inkscape="http://www.inkscape.org/namespaces/inkscape"
   width="128"
   height="128"
   id="svg2"
   version="1.1"
   inkscape:version="0.48.3.1 r9886"
   sodipodi:docname="plate_cutlery_128.svg">
  <defs
     id="defs4">
    <linearGradient
       inkscape:collect="always"
       id="linearGradient3914">
      <stop
         style="stop-color:#666666;stop-opacity:1;"
         offset="0"
         id="stop3916" />
      <stop
         style="stop-color:#666666;stop-opacity:0;"
         offset="1"
         id="stop3918" />
    </linearGradient>
    <linearGradient
       inkscape:collect="always"
       id="linearGradient3851">
      <stop
         style="stop-color:#666666;stop-opacity:1;"
         offset="0"
         id="stop3853" />
      <stop
         style="stop-color:#666666;stop-opacity:0;"
         offset="1"
         id="stop3855" />
    </linearGradient>
    <linearGradient
       inkscape:collect="always"
       xlink:href="#linearGradient3851"
       id="linearGradient3857"
       x1="16"
       y1="32"
       x2="120"
       y2="104"
       gradientUnits="userSpaceOnUse" />
    <linearGradient
       inkscape:collect="always"
       xlink:href="#linearGradient3851-3"
       id="linearGradient3857-0"
       x1="16"
       y1="32"
       x2="120"
       y2="104"
       gradientUnits="userSpaceOnUse" />
    <linearGradient
       inkscape:collect="always"
       id="linearGradient3851-3">
      <stop
         style="stop-color:#666666;stop-opacity:1;"
         offset="0"
         id="stop3853-6" />
      <stop
         style="stop-color:#666666;stop-opacity:0;"
         offset="1"
         id="stop3855-3" />
    </linearGradient>
    <linearGradient
       y2="104"
       x2="120"
       y1="32"
       x1="16"
       gradientUnits="userSpaceOnUse"
       id="linearGradient3874"
       xlink:href="#linearGradient3851-3"
       inkscape:collect="always" />
    <linearGradient
       inkscape:collect="always"
       xlink:href="#linearGradient3914"
       id="linearGradient3920"
       x1="0"
       y1="68"
       x2="28"
       y2="72"
       gradientUnits="userSpaceOnUse"
       gradientTransform="translate(1,926.61216)" />
    <linearGradient
       inkscape:collect="always"
       xlink:href="#linearGradient3914-0"
       id="linearGradient3920-9"
       x1="0"
       y1="68"
       x2="28"
       y2="72"
       gradientUnits="userSpaceOnUse"
       gradientTransform="translate(1,926.61216)" />
    <linearGradient
       inkscape:collect="always"
       id="linearGradient3914-0">
      <stop
         style="stop-color:#666666;stop-opacity:1;"
         offset="0"
         id="stop3916-2" />
      <stop
         style="stop-color:#666666;stop-opacity:0;"
         offset="1"
         id="stop3918-2" />
    </linearGradient>
    <linearGradient
       y2="72"
       x2="28"
       y1="68"
       x1="0"
       gradientTransform="translate(99,926.61214)"
       gradientUnits="userSpaceOnUse"
       id="linearGradient3945"
       xlink:href="#linearGradient3914-0"
       inkscape:collect="always" />
    <linearGradient
       y2="72"
       x2="28"
       y1="68"
       x1="0"
       gradientTransform="translate(103,950.61214)"
       gradientUnits="userSpaceOnUse"
       id="linearGradient3945-1"
       xlink:href="#linearGradient3914-0-3"
       inkscape:collect="always" />
    <linearGradient
       inkscape:collect="always"
       id="linearGradient3914-0-3">
      <stop
         style="stop-color:#666666;stop-opacity:1;"
         offset="0"
         id="stop3916-2-0" />
      <stop
         style="stop-color:#666666;stop-opacity:0;"
         offset="1"
         id="stop3918-2-9" />
    </linearGradient>
    <linearGradient
       inkscape:collect="always"
       xlink:href="#linearGradient3914-3"
       id="linearGradient3920-7"
       x1="0"
       y1="68"
       x2="28"
       y2="72"
       gradientUnits="userSpaceOnUse"
       gradientTransform="translate(5,950.61216)" />
    <linearGradient
       inkscape:collect="always"
       id="linearGradient3914-3">
      <stop
         style="stop-color:#666666;stop-opacity:1;"
         offset="0"
         id="stop3916-1" />
      <stop
         style="stop-color:#666666;stop-opacity:0;"
         offset="1"
         id="stop3918-29" />
    </linearGradient>
    <linearGradient
       y2="104"
       x2="120"
       y1="32"
       x1="16"
       gradientUnits="userSpaceOnUse"
       id="linearGradient3874-6"
       xlink:href="#linearGradient3851-3-7"
       inkscape:collect="always" />
    <linearGradient
       inkscape:collect="always"
       id="linearGradient3851-3-7">
      <stop
         style="stop-color:#666666;stop-opacity:1;"
         offset="0"
         id="stop3853-6-8" />
      <stop
         style="stop-color:#666666;stop-opacity:0;"
         offset="1"
         id="stop3855-3-4" />
    </linearGradient>
    <linearGradient
       inkscape:collect="always"
       xlink:href="#linearGradient3851-2"
       id="linearGradient3857-5"
       x1="16"
       y1="32"
       x2="120"
       y2="104"
       gradientUnits="userSpaceOnUse" />
    <linearGradient
       inkscape:collect="always"
       id="linearGradient3851-2">
      <stop
         style="stop-color:#666666;stop-opacity:1;"
         offset="0"
         id="stop3853-3" />
      <stop
         style="stop-color:#666666;stop-opacity:0;"
         offset="1"
         id="stop3855-7" />
    </linearGradient>
    <linearGradient
       y2="104"
       x2="120"
       y1="32"
       x1="16"
       gradientUnits="userSpaceOnUse"
       id="linearGradient3994"
       xlink:href="#linearGradient3851-2"
       inkscape:collect="always" />
  </defs>
  <sodipodi:namedview
     id="base"
     pagecolor="#ffffff"
     bordercolor="#666666"
     borderopacity="1.0"
     inkscape:pageopacity="0.0"
     inkscape:pageshadow="2"
     inkscape:zoom="2.8"
     inkscape:cx="72.057269"
     inkscape:cy="69.464914"
     inkscape:document-units="px"
     inkscape:current-layer="layer1"
     showgrid="true"
     inkscape:showpageshadow="true"
     inkscape:window-width="1024"
     inkscape:window-height="543"
     inkscape:window-x="0"
     inkscape:window-y="0"
     inkscape:window-maximized="1">
    <inkscape:grid
       type="xygrid"
       id="grid2985"
       empspacing="4"
       visible="true"
       enabled="true"
       snapvisiblegridlinesonly="true" />
  </sodipodi:namedview>
  <metadata
     id="metadata7">
    <rdf:RDF>
      <cc:Work
         rdf:about="">
        <dc:format>image/svg+xml</dc:format>
        <dc:type
           rdf:resource="http://purl.org/dc/dcmitype/StillImage" />
        <dc:title></dc:title>
      </cc:Work>
    </rdf:RDF>
  </metadata>
  <g
     inkscape:label="Layer 1"
     inkscape:groupmode="layer"
     id="layer1"
     transform="translate(0,-924.36218)">
    <g
       id="g4043"
       transform="translate(-4,-24.00002)"
       style="fill:#000000;stroke:#000000;stroke-width:10;stroke-miterlimit:4;stroke-dasharray:none">
      <path
         transform="matrix(0.83333333,0,0,0.83333337,14.666667,959.02884)"
         d="M 112,64 C 112,90.509668 90.509668,112 64,112 37.490332,112 16,90.509668 16,64 16,37.490332 37.490332,16 64,16 c 26.509668,0 48,21.490332 48,48 z"
         sodipodi:ry="48"
         sodipodi:rx="48"
         sodipodi:cy="64"
         sodipodi:cx="64"
         id="path3841-6"
         style="fill:#000000;fill-opacity:1;stroke:#000000;stroke-width:11.99999976;stroke-linecap:square;stroke-linejoin:round;stroke-miterlimit:4;stroke-opacity:1;stroke-dasharray:none;stroke-dashoffset:0"
         sodipodi:type="arc" />
      <path
         d="M 112,64 C 112,90.509668 90.509668,112 64,112 37.490332,112 16,90.509668 16,64 16,37.490332 37.490332,16 64,16 c 26.509668,0 48,21.490332 48,48 z"
         sodipodi:ry="48"
         sodipodi:rx="48"
         sodipodi:cy="64"
         sodipodi:cx="64"
         id="path3841-1-3"
         style="fill:#000000;fill-opacity:1;stroke:#000000;stroke-width:18.00000034;stroke-linecap:square;stroke-linejoin:round;stroke-miterlimit:4;stroke-opacity:1;stroke-dasharray:none;stroke-dashoffset:0"
         sodipodi:type="arc"
         transform="matrix(0.55555554,0,0,0.55555555,32.444445,976.80663)" />
      <path
         sodipodi:nodetypes="cccccccccccccccccc"
         inkscape:connector-curvature="0"
         id="path3912-3"
         d="m 17,1070.6122 c 1,1 3,1 4,0 l 0,-76.00004 c 0,-4 8,-8 8,-12 l 0,-28 -4,4 0,16 -4,0 0,-20 -4,4 0,16 -4,0 0,-20 -4,4 0,12 0,12 c 0,4 8,8 8,12 z"
         style="fill:#000000;stroke:#000000;stroke-width:10;stroke-linecap:round;stroke-linejoin:round;stroke-miterlimit:4;stroke-opacity:1;stroke-dasharray:none" />
      <path
         sodipodi:nodetypes="cccccc"
         inkscape:connector-curvature="0"
         id="path3912-0-8"
         d="m 115,1070.6122 c 1,1 3,1 4,0 l 0,-76.00006 0,-38.24996 c -20,20 -11,36 -4,38.24996 z"
         style="fill:#000000;stroke:#000000;stroke-width:10;stroke-linecap:round;stroke-linejoin:round;stroke-miterlimit:4;stroke-opacity:1;stroke-dasharray:none" />
    </g>
    <path
       sodipodi:type="arc"
       style="fill:#b3b3b3;fill-opacity:1;stroke:url(#linearGradient3857);stroke-width:4;stroke-linecap:square;stroke-linejoin:round;stroke-miterlimit:4;stroke-opacity:1;stroke-dasharray:none;stroke-dashoffset:0"
       id="path3841"
       sodipodi:cx="64"
       sodipodi:cy="64"
       sodipodi:rx="48"
       sodipodi:ry="48"
       d="m 112,64 a 48,48 0 1 1 -96,0 48,48 0 1 1 96,0 z"
       transform="matrix(0.83333333,0,0,0.83333337,10.666667,935.02884)" />
    <path
       transform="matrix(0.55555554,0,0,0.55555555,28.444445,952.80663)"
       sodipodi:type="arc"
       style="fill:#e6e6e6;fill-opacity:1;stroke:url(#linearGradient3874);stroke-width:4;stroke-linecap:square;stroke-linejoin:round;stroke-miterlimit:4;stroke-opacity:1;stroke-dasharray:none;stroke-dashoffset:0"
       id="path3841-1"
       sodipodi:cx="64"
       sodipodi:cy="64"
       sodipodi:rx="48"
       sodipodi:ry="48"
       d="m 112,64 a 48,48 0 1 1 -96,0 48,48 0 1 1 96,0 z" />
    <path
       style="fill:#cccccc;stroke:url(#linearGradient3920);stroke-width:2;stroke-linecap:round;stroke-linejoin:round;stroke-miterlimit:4;stroke-opacity:1;stroke-dasharray:none"
       d="m 13,1046.6122 c 1,1 3,1 4,0 l 0,-76.00004 c 0,-4 8,-8 8,-12 l 0,-28 -4,4 0,16 -4,0 0,-20 -4,4 0,16 -4,0 0,-20 -4,4 0,12 0,12 c 0,4 8,8 8,12 z"
       id="path3912"
       inkscape:connector-curvature="0"
       sodipodi:nodetypes="cccccccccccccccccc" />
    <path
       style="fill:#cccccc;stroke:url(#linearGradient3945);stroke-width:2;stroke-linecap:round;stroke-linejoin:round;stroke-miterlimit:4;stroke-opacity:1;stroke-dasharray:none"
       d="m 111,1046.6122 c 1,1 3,1 4,0 l 0,-76.00006 0,-38.24996 c -20,20 -11,36 -4,38.24996 z"
       id="path3912-0"
       inkscape:connector-curvature="0"
       sodipodi:nodetypes="cccccc" />
  </g>
</svg>
